<svg width="512" height="512" xmlns="http://www.w3.org/2000/svg"><path fill="none" d="M-1-1h514v514H-1z"/><path fill="#455abd" d="M257 1c140.016 0 253.574 114.645 253.574 256S397.016 513 257 513C116.984 513 3.426 398.355 3.426 257S116.984 1 257 1z"/><path fill="#757575" d="M349.989 363.774c0 .651.32 1.307.32 1.958 0 18.287-45.282 32.981-101.237 32.981-55.626 0-100.907-14.694-100.907-32.981v-3.592c0-18.282 45.281-32.978 100.907-32.978 55.955 0 101.237 14.695 101.237 32.978.001.656-.32 1.307-.32 1.634z"/><path fill="#696969" d="M349.989 363.774c0 .651.32 1.307.32 1.958 0 18.287-45.282 32.981-101.237 32.981h-7.115v-69.551h7.115c55.955 0 101.237 14.695 101.237 32.978.001.656-.32 1.307-.32 1.634z"/><path fill="#757575" d="M241.958 329.163h7.115c54.015 0 98.003 13.712 100.917 31.348-2.913 17.304-46.901 31.02-100.917 31.02h-7.115v-62.368z"/><path fill="#8D8D8D" d="M249.073 325.572c55.736 0 100.917 14.766 100.917 32.977 0 18.216-45.181 32.981-100.917 32.981-55.73 0-100.907-14.766-100.907-32.981 0-18.211 45.176-32.977 100.907-32.977z"/><path fill="#7F7F7F" d="M249.073 325.572c55.955 0 101.237 14.694 101.237 32.977 0 18.287-45.282 32.981-101.237 32.981h-7.115v-65.958h7.115z"/><path fill="#CCC" d="M212.526 262.227h73.423v88.16h-73.423z"/><path fill="#B8B8B8" d="M285.949 309.57v40.817h-43.991V309.57z"/><path fill="#B8B8B8" d="M218.022 267.776h63.72v77.061h-63.72z"/><path fill="#A6A6A6" d="M281.742 309.57v35.267h-39.784V309.57z"/><path fill="#A9ABAE" d="M66.009 55.86h367.746c3.56 0 6.797 2.936 6.797 6.856v239.998c0 3.92-3.237 6.856-6.797 6.856H66.009c-3.553 0-6.466-2.937-6.466-6.856V62.716c-.001-3.92 2.913-6.856 6.466-6.856z"/><path fill="#4E5A62" d="M80.565 65.98h344.781c2.913 0 5.177 2.285 5.177 5.222v217.474c0 2.936-2.264 5.221-5.177 5.221H74.423c-2.914 0-5.177-2.285-5.177-5.221V77.411c.001-6.533 5.177-11.431 11.319-11.431z"/><path fill="#CCC" d="M250.047 295.53c2.855 0 5.176 2.339 5.176 5.227 0 2.883-2.321 5.222-5.176 5.222-2.86 0-5.177-2.339-5.177-5.222 0-2.888 2.317-5.227 5.177-5.227z"/><path fill="#B3B3B3" d="M250.047 297.16c1.966 0 3.553 1.612 3.553 3.597 0 1.979-1.587 3.587-3.553 3.587-1.965 0-3.563-1.607-3.563-3.587 0-1.985 1.598-3.597 3.563-3.597z"/><path fill="#C2C3C5" d="M90.593 75.776h18.434v18.615H90.593V75.776zm21.996 170.45h18.434v18.609h-18.434v-18.609zm-21.996 0h18.434v18.609H90.593v-18.609zm21.996-21.228h18.434v18.614h-18.434v-18.614zm-21.996 0h18.434v18.614H90.593v-18.614zm21.996-21.551h18.434v18.942h-18.434v-18.942zm-21.996 0h18.434v18.942H90.593v-18.942zm21.996-21.223h18.434v18.61h-18.434v-18.61zm-21.996 0h18.434v18.61H90.593v-18.61zM112.589 161h18.434v18.61h-18.434V161zm-21.996 0h18.434v18.61H90.593V161zm21.996-21.223h18.434v18.61h-18.434v-18.61zm-21.996 0h18.434v18.61H90.593v-18.61zm21.996-21.55h18.434v18.61h-18.434v-18.61zm-21.996 0h18.434v18.61H90.593v-18.61zM112.589 97h18.434v18.615h-18.434V97zm-21.996 0h18.434v18.615H90.593V97zm21.996-21.224h18.434v18.615h-18.434V75.776z"/><path fill="#CBD0D4" d="M358.074 285.407h54.984v39.509h-54.984z"/><path fill="#f0f1f4" d="M362.926 290.306h45.457v29.902h-45.457z"/><path fill="#CBD0D4" d="M421.469 271.367h54.979v39.509h-54.979z"/><path fill="#2d4a99" d="M426.315 276.266h45.462v29.903h-45.462z"/><path fill="#E6E7E8" d="M344.167 201.817h124.847v89.794H344.167z"/><path fill="#455abd" d="M354.841 212.592h103.175v67.916H354.841z"/><path fill="#f0f1f4" d="M228.051 6.549H121.968c-9.059 0-16.174 7.184-16.174 16.001v62.043c0 9.141 7.115 16.325 16.174 16.325h81.503l23.61 30.692v-30.691h.97c8.734 0 16.169-7.184 16.169-16.325V22.551c.001-8.818-7.435-16.002-16.169-16.002z"/><path fill="#373435" d="M135.493 65.823h-4.921V34.196h4.92V47.75h5.593V34.196h5.01v31.627h-5.01V52.269h-5.592v13.554zm12.752-31.627h15.21v4.518h-5.144v27.109h-4.921V38.714h-5.145v-4.518zm27.785 22.455l3.355-22.455h6.845v31.627h-4.653V43.142l-3.4 22.681h-4.653l-3.67-22.365v22.365h-4.294V34.196h6.845l3.625 22.455zm13.782-22.455h4.92v27.109h8.099v4.518h-13.02V34.196zm21.788-.362c4.788 0 7.249 2.892 7.249 7.952v.994h-4.653v-1.31c0-2.259-.895-3.118-2.461-3.118s-2.46.858-2.46 3.118c0 6.506 9.619 7.726 9.619 16.762 0 5.06-2.505 7.952-7.337 7.952s-7.337-2.892-7.337-7.952v-1.943h4.653v2.259c0 2.259.984 3.073 2.55 3.073s2.55-.813 2.55-3.073c0-6.506-9.62-7.726-9.62-16.762 0-5.06 2.462-7.952 7.248-7.952z"/><path fill="#E6E7E8" d="M271.068 236.428c.646 1.634.97 2.94 1.295 4.571h7.116l.324 8.817-7.116.328c-.324 1.63-.649 3.265-1.294 4.898l6.146 3.591-4.532 7.835-5.821-3.592c-.969 1.307-2.265 2.285-3.558 3.592l3.558 5.877-7.761 4.571-3.237-5.877c-1.614.654-3.233.979-4.852 1.306v6.532h-9.054v-6.204c-1.614-.328-3.233-.655-4.852-1.307l-3.233 5.55-7.76-4.571 3.233-5.55c-1.294-.979-2.264-1.961-3.558-3.268l-5.176 3.268-4.528-7.839 5.177-3.264c-.649-1.635-.974-3.265-1.298-4.898h-6.142v-8.817l6.142-.323c.324-1.634.649-3.592 1.298-5.226l-5.501-3.264 4.527-7.839 5.826 3.268c.969-1.311 2.263-2.285 3.553-3.268l-3.553-5.877 8.084-4.57 3.233 5.877c1.614-.328 2.914-.656 4.528-.979v-6.86h9.054v6.86c1.619.323 2.913.979 4.532 1.306l3.558-6.205 7.761 4.57-3.558 6.205c.97.979 1.943 1.958 2.913 3.269l6.146-3.924 4.527 7.839-6.147 3.592z"/><path fill="#D2D3D5" d="M258.544 238.833c3.852 6.518 1.742 14.952-4.712 18.844-6.453 3.889-14.81 1.759-18.661-4.757-3.856-6.514-1.746-14.952 4.708-18.84 6.456-3.892 14.809-1.762 18.665 4.753z"/><path fill="#BDBFC1" d="M255.969 240.384c3.006 5.084 1.36 11.661-3.671 14.694-5.032 3.033-11.552 1.373-14.552-3.707-3.009-5.08-1.364-11.661 3.668-14.69 5.036-3.038 11.55-1.378 14.555 3.703z"/><path fill="#E6E7E8" d="M310.529 225.98c.323.651.644 1.63.644 2.285h3.883v4.571h-3.558c-.325.979-.325 1.63-.646 2.613l3.234 1.63-2.589 4.247-2.912-1.958c-.32.651-.97 1.307-1.615 1.958l1.615 2.94-3.879 2.286-1.619-2.941c-.969.328-1.618.655-2.587.655v3.265h-4.528v-3.265c-.645 0-1.618-.327-2.588-.655l-1.295 2.941-4.202-2.286 1.615-2.94c-.646-.327-1.29-.979-1.615-1.634l-2.588 1.634-2.588-3.919 2.913-1.63c-.325-.655-.65-1.634-.97-2.613h-2.913v-4.571h2.913c.319-.983.645-1.634.97-2.613l-2.913-1.634 2.263-3.919 2.913 1.634c.646-.651 1.295-1.306 1.939-1.962l-1.939-2.936 4.202-2.286 1.619 3.264c.646-.328 1.619-.651 2.264-.651v-3.592h4.528v3.592c.969.324 1.618.324 2.264.651l1.942-3.264 3.879 2.286-1.615 3.264c.325.655.97.983 1.295 1.634l3.232-1.962 2.264 3.924-3.232 1.957z"/><path fill="#D2D3D5" d="M304.277 227.167c1.961 3.317.891 7.608-2.396 9.588-3.281 1.979-7.532.895-9.493-2.418-1.961-3.317-.886-7.604 2.396-9.589a6.89 6.89 0 0 1 9.493 2.419z"/><path fill="#BDBFC1" d="M302.971 227.96c1.53 2.582.692 5.931-1.869 7.472-2.558 1.545-5.873.7-7.404-1.886-1.528-2.583-.689-5.926 1.868-7.472 2.561-1.546 5.877-.7 7.405 1.886z"/><path fill="#E6E7E8" d="M237.105 164.592c.649 1.962.974 3.592 1.299 5.549l9.054-.328v11.107l-8.734.324c-.32 1.962-.645 3.919-1.294 5.876l7.44 4.571-5.501 9.469-7.436-4.243c-.969 1.63-2.587 2.941-3.882 4.243l4.202 7.184-9.699 5.554-3.882-6.856c-1.939.651-3.879 1.302-5.822 1.63v7.839h-10.997V209c-2.264-.328-4.203-.979-6.142-1.63l-3.887 6.528-9.38-5.554 3.563-6.528c-1.298-1.307-2.588-2.613-3.882-3.92l-6.471 3.592-5.821-9.468 6.47-3.916c-.649-1.962-1.293-3.924-1.618-5.881h-7.436l-.325-11.099h7.761c.325-2.285.969-4.571 1.618-6.533l-6.47-3.919 5.496-9.796 6.796 3.919c1.293-1.307 2.583-2.936 4.206-3.919l-3.887-7.184 9.38-5.549 4.207 7.184c1.943-.651 3.882-.979 5.821-1.307v-8.49h10.997v8.818c1.943.328 3.558.65 5.497 1.302l4.207-7.507 9.699 5.549-4.527 7.839a18.623 18.623 0 0 1 3.563 3.592l7.76-4.575 5.497 9.469-7.44 4.575z"/><path fill="#D2D3D5" d="M221.607 167.418c4.725 7.985 2.136 18.322-5.769 23.092-7.914 4.77-18.154 2.157-22.878-5.828-4.725-7.985-2.136-18.322 5.774-23.092 7.909-4.77 18.148-2.157 22.873 5.828z"/><path fill="#BDBFC1" d="M218.453 169.318c3.686 6.227 1.667 14.288-4.501 18.008-6.168 3.72-14.151 1.683-17.837-4.544s-1.667-14.288 4.501-18.008c6.168-3.72 14.156-1.683 17.837 4.544z"/><path fill="#E6E7E8" d="M270.424 22.878H466.1v148.897H270.424z"/><path fill="#0D3652" d="M270.424 22.878H466.1v19.917H270.424z"/><path fill="#699392" d="M270.424 54.549H466.1V42.795H270.424z"/><path fill="#607D8B" d="M285.949 125.083h76.875v8.579h-76.875zm82.149 0h27.216v8.579h-27.216zm32.993 0h49.62v8.579h-49.62zm-37.195 12.082h76.875v8.579h-76.875zm-32.345 0h27.211v8.579h-27.211zm-55.306 0h49.62v8.579h-49.62zm105.114 11.098h76.879v8.583h-76.879zm-32.344 0h27.216v8.583h-27.216zm-55.306 0h49.62v8.583h-49.62z"/><path fill="#F48884" d="M284.655 45.08c1.96 0 3.558 1.612 3.558 3.597s-1.598 3.587-3.558 3.587c-1.966 0-3.558-1.603-3.558-3.587s1.592-3.597 3.558-3.597z"/><path fill="#5CC6D0" d="M294.354 45.08c1.966 0 3.558 1.612 3.558 3.597s-1.592 3.587-3.558 3.587c-1.961 0-3.558-1.603-3.558-3.587s1.598-3.597 3.558-3.597z"/><path fill="#A7C4D2" d="M303.413 45.08c1.965 0 3.558 1.612 3.558 3.597s-1.593 3.587-3.558 3.587-3.558-1.603-3.558-3.587 1.593-3.597 3.558-3.597z"/><path fill="#537473" d="M317.645 51.941h145.543v-6.205H317.645z"/><path fill="#7478fc" d="M279.804 61.409h177.242v56.163H279.804z"/><path fill="#4E5A62" d="M476.448 266.141h-2.264v-64.324c0-2.941-2.264-5.226-5.171-5.226h-23.291v-19.593H466.1c2.914 0 5.178-2.286 5.178-5.222V22.878c0-2.936-2.264-5.222-5.178-5.222H270.424c-2.913 0-5.176 2.286-5.176 5.222v27.755h-15.85V22.551C249.398 10.797 239.694 1 228.051 1H121.968c-11.967 0-21.347 9.797-21.347 21.551v28.083H66.009c-6.466 0-11.643 5.549-11.643 12.083v239.998c0 6.856 5.176 12.082 11.643 12.082h141.345v8.49c-14.556 1.958-30.406 5.55-43.342 11.755-9.055 4.242-21.021 11.754-21.021 23.508v7.184c0 14.694 19.082 23.513 30.725 27.428 21.022 7.512 45.931 10.124 68.243 10.78h7.115c23.935 0 50.458-2.614 73.099-9.798 11.967-4.246 33.313-13.06 33.313-28.41 0-.651 0-1.307-.324-1.958.324-.327.324-.979.324-1.634 0-.65 0-.979-.324-1.63.324-.655.324-1.307.324-1.962 0-11.754-11.967-19.266-21.346-23.508-12.937-6.205-28.787-9.797-43.018-11.755v-8.49h61.775v10.12c0 2.941 2.588 5.226 5.178 5.226h54.984c2.909 0 5.496-2.284 5.496-5.226v-9.792c.646.651 1.938 1.302 2.914 1.302h54.979c2.914 0 5.177-2.608 5.177-5.55v-39.509c0-2.942-2.263-5.227-5.177-5.227zm0 44.735h-54.979v-1.306h-8.41v15.346h-54.984V309.57H285.95v18.287c37.517 4.57 64.36 16.651 64.36 30.691 0 .655-.32 1.307-.32 1.962 0 .323.32.979.32 1.63 0 .655-.32 1.307-.32 1.634 0 .651.32 1.307.32 1.958 0 18.287-45.282 32.981-101.237 32.981h-7.115c-52.397-1.306-93.792-15.673-93.792-32.981v-7.184c0-14.04 26.844-26.121 64.36-30.691V309.57H66.009c-3.553 0-6.466-2.937-6.466-6.856V62.716c0-3.92 2.914-6.856 6.466-6.856h39.785V22.55c0-8.818 7.115-16.001 16.174-16.001h106.083c8.734 0 16.169 7.184 16.169 16.001v33.31h26.203V22.878H466.1v148.898h-25.548v30.041h28.462v69.55h7.435v39.509h-.001z"/><path fill="#E6E6E6" d="M70.537 414.388h374.217c5.177 7.184 10.348 14.039 15.525 21.223 5.497 7.184 10.349 14.04 15.523 21.224 5.178 6.859 10.675 14.043 15.847 21.227 5.176 6.856 10.353 14.04 15.525 21.224H7.146c5.176-7.184 10.353-14.367 15.845-21.224 5.176-7.184 10.353-14.367 15.854-21.227 5.172-7.184 10.668-14.367 15.846-21.224 5.177-7.184 10.674-14.04 15.846-21.223z"/><path fill="#CCC" d="M8.761 497.978h496.475c1.618 0 2.589 2.285 2.589 4.897 0 2.614-.971 4.898-2.589 4.898H8.761c-1.614 0-2.583-2.284-2.583-4.898-.001-2.612.968-4.897 2.583-4.897z"/><path fill="#B3B3B3" d="M8.761 498.633c-1.614 0-1.939 3.264-1.939 4.242s.325 4.248 1.939 4.248h496.475c1.618 0 2.264-3.27 2.264-4.248s-.646-4.242-2.264-4.242H8.761z"/><path fill="#CFCFCF" d="M250.371 414.388h194.383c5.177 7.184 10.348 14.039 15.525 21.223 5.497 7.184 10.349 14.04 15.523 21.224 5.178 6.859 10.675 14.043 15.847 21.227 5.176 6.856 10.353 14.04 15.525 21.224H250.371v-84.898z"/><path fill="#CCC" d="M44.662 477.405h72.129c-1.618 2.94-2.914 5.878-4.203 8.817-24.584 0-49.167-.327-73.743-.327 1.615-2.612 3.879-5.549 5.817-8.49zm76.982 0c7.76 0 15.521 0 23.285.328-1.294 2.612-2.264 5.55-3.233 8.489h-23.935c1.294-2.939 2.589-5.876 3.883-8.817zm27.168.328h22.965c-.974 2.941-1.619 5.877-2.588 8.817-7.765 0-15.85 0-23.61-.328.969-2.939 1.938-5.876 3.233-8.489zm26.842 0h23.286c-.646 2.941-1.615 5.877-1.939 8.817h-23.934c.648-2.94 1.618-5.875 2.587-8.817zm27.173 0c7.436 0 15.196.327 22.961.327-.325 2.937-.65 5.878-1.294 8.813-7.761 0-15.85-.323-23.61-.323.324-2.94.969-5.875 1.943-8.817zm26.843.328h23.286c-.32 2.937-.645 5.878-.645 8.813h-23.935c.324-2.936.648-5.877 1.294-8.813zm26.844 0c7.765 0 15.524 0 23.29.328v8.813c-7.766 0-15.851-.328-23.615-.328-.001-2.936.325-5.877.325-8.813zm27.168.328h23.289c0 2.936.325 5.877.646 8.813h-23.935v-8.813zm26.847 0h23.284c.325 2.936.97 6.2 1.62 9.141-8.085 0-16.171-.327-23.936-.327-.324-2.937-.644-5.879-.968-8.814zm27.167 0c7.761.323 15.525.323 23.285.323l1.944 8.817H338.99c-.324-2.94-.969-5.876-1.294-9.14zm26.844.323h23.289c.97 2.941 1.939 5.877 2.909 9.146-8.085-.329-15.846-.329-23.931-.329-.648-2.94-1.618-5.876-2.267-8.817zm26.848 0c24.255 0 48.188 0 72.125.328l4.851 8.818h-73.742c-1.296-3.269-2.265-6.205-3.234-9.146zm-277.51-12.405h22.641c-1.619 2.937-2.909 5.877-4.527 8.814-7.76 0-15.525 0-22.965-.329 1.619-2.936 3.237-5.549 4.851-8.485zm26.199 0h22.321c-1.299 2.937-2.264 5.877-3.562 8.814H135.55c1.614-2.937 3.237-5.878 4.527-8.814zm26.198 0h22.32c-.974 2.937-1.943 5.877-2.913 8.814h-23.286c1.291-2.937 2.585-5.878 3.879-8.814zm25.874 0c7.44.323 14.88.323 22.32.323-.649 2.941-1.298 5.877-2.263 8.818-7.441 0-15.205 0-22.965-.327l2.908-8.814zm26.198.323h22.321c-.649 2.941-.974 5.877-1.619 8.818h-22.965c.649-2.941 1.294-5.877 2.263-8.818zm25.874 0h22.321c0 3.269-.324 6.205-.649 9.146-7.76-.327-15.521-.327-22.961-.327.323-2.942.969-5.878 1.289-8.819zm26.203 0c7.436.327 14.876.327 22.316.327v8.818h-22.966c0-2.94.326-5.877.65-9.145zm25.874.327h22.64c0 2.941.325 5.878.646 8.818h-23.285l-.001-8.818zm26.198 0h22.316c.324 3.265.969 6.205 1.294 9.143-7.765 0-15.201 0-22.965-.324-.325-2.941-.645-5.878-.645-8.819zm25.873 0c7.441.329 15.201.329 22.316.329.971 2.936 1.619 5.876 2.264 8.813h-22.96c-.65-2.937-.974-5.877-1.62-9.142zm26.198.329h22.317c.969 2.936 1.943 5.876 2.912 8.813H376.83c-.968-2.937-1.617-5.877-2.263-8.813zm25.875 0h57.248a121.163 121.163 0 0 0 4.526 9.141c-19.727 0-39.134 0-58.542-.327-1.288-2.938-2.263-5.878-3.232-8.814zm-347.045-1.307c19.083 0 38.166 0 57.249.328-1.943 2.937-3.558 5.55-5.498 8.485H46.606l6.791-8.813zm42.048-11.103h21.672c-1.619 2.94-3.563 5.878-5.177 8.817H89.62c1.943-2.939 3.885-5.877 5.825-8.817zm24.905 0h21.667c-1.291 2.94-2.909 5.878-4.203 8.817h-22.315c1.618-2.939 3.232-5.877 4.851-8.817zm25.228 0c7.116 0 14.556.328 21.672.328-1.298 2.936-2.269 5.55-3.563 8.489h-22.315c1.293-2.939 2.908-5.877 4.206-8.817zm25.224.328h21.347c-.646 2.936-1.615 5.877-2.589 8.813-7.435 0-14.875 0-22.311-.324.965-2.612 2.264-5.553 3.553-8.489zm24.909 0h21.667c-.645 2.936-1.294 5.877-2.263 8.813h-21.992c.969-2.936 1.614-5.877 2.588-8.813zm25.225 0h21.67c-.649 2.936-.969 5.877-1.614 8.813h-22.32c.974-2.936 1.615-5.877 2.264-8.813zm25.228 0c7.116 0 14.231 0 21.672.327-.325 2.937-.649 5.878-.97 8.813-7.44 0-14.881 0-22.32-.327.649-2.936.974-5.877 1.618-8.813zm24.904.327h21.672v8.813h-22.316c.32-2.935.32-5.876.644-8.813zm25.23 0h21.671c0 2.937.32 5.878.645 8.813h-22.315l-.001-8.813zm24.904 0h21.672c.644 2.937.969 5.878 1.613 9.142-7.436 0-14.875-.328-22.315-.328-.324-2.936-.645-5.877-.97-8.814zm25.229 0c7.115 0 14.551 0 21.667.323.648 2.94 1.294 5.878 2.263 8.818h-22.315c-.647-2.94-.97-6.204-1.615-9.141zm25.225.323h21.67c.97 2.94 1.943 5.878 2.913 8.818h-22.315c-.65-2.94-1.619-5.877-2.268-8.818zm24.904 0h21.671c1.294 2.94 2.589 5.878 3.559 8.818h-21.992c-.97-2.94-2.264-5.877-3.238-8.818zm25.229 0h29.756c1.618 2.94 3.237 5.878 4.853 8.818h-30.727l-3.882-8.818zm-359.658-.978h29.752l-5.817 8.817H55.34c2.264-2.939 4.528-5.877 6.791-8.817zm7.44-11.427h21.022c-1.62 2.938-3.238 5.877-5.177 8.813h-21.67c2.263-2.936 4.207-5.875 5.825-8.813zm24.256 0h21.025c-1.618 2.938-2.913 5.877-4.851 8.813H88.655c1.938-2.936 3.553-5.875 5.172-8.813zm24.254 0c6.795.323 13.911.323 20.706.323-.974 2.941-2.268 5.878-3.563 8.49h-21.67c1.619-2.936 3.238-5.875 4.527-8.813zm24.259.323h20.701c-.644 2.941-1.943 5.878-2.908 8.817h-21.67c1.614-2.939 2.908-5.875 3.877-8.817zm24.259 0h20.698c-.645 2.941-1.29 5.878-2.264 8.817h-21.67c1.298-2.939 2.263-5.875 3.236-8.817zm24.26 0h20.697c-.325 2.941-.97 5.878-1.614 8.817h-21.671c.97-2.939 1.939-5.875 2.588-8.817zm24.256 0h20.701l-.974 8.817h-21.67c.973-2.939 1.297-5.875 1.943-8.817zm24.254 0h20.703c0 2.941 0 5.878-.32 9.146-7.115-.329-14.556-.329-21.671-.329.644-2.939.968-5.875 1.288-8.817zm24.26 0c6.795 0 13.911.328 20.701.328 0 2.941.325 5.877.325 8.818h-21.672c.326-2.94.646-6.204.646-9.146zm23.935.329h21.021c.324 2.941.648 5.877.974 8.818h-21.672c.001-2.941.001-5.877-.323-8.818zm24.58 0h20.701c.65 2.941.969 5.877 1.619 8.818h-21.672c0-2.941-.324-5.877-.648-8.818zm23.934 0h21.026c.97 2.941 1.613 5.877 2.263 8.818h-21.671c-.323-2.941-.968-5.877-1.618-8.818zm24.26 0h21.021c.969 2.941 1.944 5.877 2.913 9.141-7.115 0-14.23 0-21.673-.322-.642-2.942-1.292-5.878-2.261-8.819zm24.904 0h20.701c1.294 2.941 2.264 6.205 3.558 9.141h-21.347c-.973-2.936-1.943-6.2-2.912-9.141zm24.904 0h35.577c1.618 3.265 2.914 6.205 4.528 9.141h-36.547c-1.296-2.936-2.265-6.2-3.558-9.141zM88.33 429.733h10.993c2.264 0 3.882.655 3.563 1.635-.65.979-2.914 1.63-4.852 1.63H86.39c-2.268 0-3.562-.651-3.237-1.63.65-.979 2.913-1.635 5.177-1.635zm21.671 0h11.318c2.263 0 3.558.655 3.232 1.635-.319.979-2.263 1.957-4.527 1.957-3.882 0-7.761-.327-11.322-.327-2.264 0-3.878-.651-3.554-1.63.645-.979 2.589-1.635 4.853-1.635zm21.991 0h10.999c2.264 0 3.877.655 3.558 1.635-.325.979-2.268 1.957-4.532 1.957h-11.318c-2.264 0-3.878-.979-3.558-1.957.324-.979 2.588-1.635 4.851-1.635zm21.672 0h11.317c2.269 0 3.883.655 3.558 1.635-.325.979-2.263 1.957-4.527 1.957h-11.318c-2.264 0-3.882-.979-3.562-1.957.324-.979 2.263-1.635 4.532-1.635zm21.99 0h10.998c2.264 0 3.882.655 3.882 1.635-.324.979-2.263 1.957-4.527 1.957h-11.322c-2.264 0-3.883-.979-3.558-1.957.325-.979 2.264-1.635 4.527-1.635zm21.672 0h11.318c2.263 0 3.882.655 3.882 1.635 0 .979-2.263 1.957-4.527 1.957h-11.323c-2.264 0-3.878-.979-3.553-1.957 0-.979 1.939-1.635 4.203-1.635zm21.995 0h11.317c1.939 0 3.883.655 3.883 1.635-.325.979-1.943 1.957-4.207 1.957h-11.318c-2.264 0-4.203-.979-3.882-1.957.001-.979 1.944-1.635 4.207-1.635zm21.671 0h11.318c2.264 0 3.878.655 4.203 1.635 0 1.307-1.939 1.957-4.203 1.957h-11.318c-2.268 0-4.207-.979-4.207-1.957.32-.979 1.94-1.635 4.207-1.635zm21.991 0h11.319c1.942 0 3.881.979 3.881 1.957.325.984-1.618 1.635-3.881 1.635h-11.319c-2.263 0-4.206-.65-4.206-1.635 0-1.301 1.944-1.957 4.206-1.957zm21.672 0h11.317c2.264 0 4.208.979 4.208 1.957.32.984-1.619 1.635-3.883 1.635h-11.323c-2.263 0-3.877-.65-4.202-1.635 0-.978 1.615-1.957 3.883-1.957zm21.991 0h11.322c1.939 0 3.879.979 4.203 1.957.324.984-1.295 1.635-3.883 1.635H306.97c-1.943 0-3.883-.65-4.206-1.635-.32-.978 1.619-1.957 3.882-1.957zm21.671 0h11.317c2.264 0 4.208.979 4.532 1.957.32.984-1.293 1.635-3.557 1.635h-11.323c-2.264 0-4.203-.65-4.527-1.635-.324-.978 1.294-1.957 3.558-1.957zm21.993 0h11.321c1.939 0 4.203.979 4.528 1.957.323.984-1.295 1.635-3.56 1.635h-11.317c-2.268 0-4.206-.65-4.531-1.635-.32-.978 1.294-1.957 3.559-1.957zm21.67 0h11.323c2.262 0 4.525.979 4.851 1.957.32.984-1.294 1.963-3.558 1.963-3.883 0-7.439-.328-11.322-.328-2.264 0-4.202-.65-4.528-1.635-.324-.978 1.296-1.957 3.234-1.957zm21.996 0h11.317c1.944 0 4.208.979 4.853 1.957.324.984-1.294 1.963-3.558 1.963H395.27c-2.267 0-4.207-.979-4.531-1.963-.646-.978.973-1.957 3.237-1.957zm21.992.328h10.998c2.263 0 4.526.651 5.175 1.63.32.984-.973 1.963-3.236 1.963h-11.318c-2.264 0-4.527-.979-5.178-1.963-.324-.979 1.295-1.63 3.559-1.63zM95.77 417.979c3.877 0 7.116.979 7.116 1.958 0 1.306-3.239 1.961-7.116 1.961-3.887 0-7.115-.655-7.115-1.961 0-.979 3.228-1.958 7.115-1.958zm17.464.652c2.583 0 4.527.655 4.527 1.307 0 .979-1.943 1.306-4.527 1.306-2.914 0-4.852-.327-4.852-1.306 0-.652 1.938-1.307 4.852-1.307z"/><path fill="#B8B8B8" d="M246.484 478.061h6.471c-.32 2.937-.645 5.878-.645 8.813h-6.47c0-2.936.324-5.877.644-8.813zm10.03 0c7.765 0 15.524 0 23.29.328v8.813c-7.766 0-15.851-.328-23.615-.328-.001-2.936.325-5.877.325-8.813zm27.168.328h23.289c0 2.936.325 5.877.646 8.813h-23.935v-8.813zm26.847 0h23.284c.325 2.936.97 6.2 1.62 9.141-8.085 0-16.171-.327-23.936-.327-.324-2.937-.644-5.879-.968-8.814zm27.167 0c7.761.323 15.525.323 23.285.323l1.944 8.817H338.99c-.324-2.94-.969-5.876-1.294-9.14zm26.844.323h23.289c.97 2.941 1.939 5.877 2.909 9.146-8.085-.329-15.846-.329-23.931-.329-.648-2.94-1.618-5.876-2.267-8.817zm26.848 0c24.255 0 48.188 0 72.125.328l4.851 8.818h-73.742c-1.296-3.269-2.265-6.205-3.234-9.146zM247.784 466.63h18.758c0 3.269-.324 6.205-.649 9.146-6.467-.327-12.937-.327-19.408-.327.648-2.942.973-5.878 1.299-8.819zm22.64 0c7.436.327 14.876.327 22.316.327v8.818h-22.966c0-2.94.326-5.877.65-9.145zm25.874.327h22.64c0 2.941.325 5.878.646 8.818h-23.285l-.001-8.818zm26.198 0h22.316c.324 3.265.969 6.205 1.294 9.143-7.765 0-15.201 0-22.965-.324-.325-2.941-.645-5.878-.645-8.819zm25.873 0c7.441.329 15.201.329 22.316.329.971 2.936 1.619 5.876 2.264 8.813h-22.96c-.65-2.937-.974-5.877-1.62-9.142zm26.198.329h22.317c.969 2.936 1.943 5.876 2.912 8.813H376.83c-.968-2.937-1.617-5.877-2.263-8.813zm25.875 0h57.248a121.163 121.163 0 0 0 4.526 9.141c-19.727 0-39.134 0-58.542-.327-1.288-2.938-2.263-5.878-3.232-8.814zm-151.369-12.082c6.15 0 12.292 0 18.763.327-.325 2.937-.649 5.878-.97 8.813-6.146 0-12.617 0-18.759-.327.321-2.936.646-5.877.966-8.813zm21.995.327h21.672v8.813h-22.316c.32-2.935.32-5.876.644-8.813zm25.23 0h21.671c0 2.937.32 5.878.645 8.813h-22.315l-.001-8.813zm24.904 0h21.672c.644 2.937.969 5.878 1.613 9.142-7.436 0-14.875-.328-22.315-.328-.324-2.936-.645-5.877-.97-8.814zm25.229 0c7.115 0 14.551 0 21.667.323.648 2.94 1.294 5.878 2.263 8.818h-22.315c-.647-2.94-.97-6.204-1.615-9.141zm25.225.323h21.67c.97 2.94 1.943 5.878 2.913 8.818h-22.315c-.65-2.94-1.619-5.877-2.268-8.818zm24.904 0h21.671c1.294 2.94 2.589 5.878 3.559 8.818h-21.992c-.97-2.94-2.264-5.877-3.238-8.818zm25.229 0h29.756c1.618 2.94 3.237 5.878 4.853 8.818h-30.727l-3.882-8.818zm-171.742-12.082h10.024c0 2.941 0 5.878-.32 9.146-3.563-.329-6.795-.329-10.353-.329.324-2.939.649-5.875.649-8.817zm13.582 0c6.795 0 13.911.328 20.701.328 0 2.941.325 5.877.325 8.818h-21.672c.326-2.94.646-6.204.646-9.146zm23.935.329h21.021c.324 2.941.648 5.877.974 8.818h-21.672c.001-2.941.001-5.877-.323-8.818zm24.58 0h20.701c.65 2.941.969 5.877 1.619 8.818h-21.672c0-2.941-.324-5.877-.648-8.818zm23.934 0h21.026c.97 2.941 1.613 5.877 2.263 8.818h-21.671c-.323-2.941-.968-5.877-1.618-8.818zm24.26 0h21.021c.969 2.941 1.944 5.877 2.913 9.141-7.115 0-14.23 0-21.673-.322-.642-2.942-1.292-5.878-2.261-8.819zm24.904 0h20.701c1.294 2.941 2.264 6.205 3.558 9.141h-21.347c-.973-2.936-1.943-6.2-2.912-9.141zm24.904 0h35.577c1.618 3.265 2.914 6.205 4.528 9.141h-36.547c-1.296-2.936-2.265-6.2-3.558-9.141zm-160.099-14.368h2.264c2.264 0 3.878.655 4.203 1.635 0 1.307-1.939 1.957-4.203 1.957h-2.264v-3.592zm12.936 0h11.319c1.942 0 3.881.979 3.881 1.957.325.984-1.618 1.635-3.881 1.635h-11.319c-2.263 0-4.206-.65-4.206-1.635 0-1.301 1.944-1.957 4.206-1.957zm21.672 0h11.317c2.264 0 4.208.979 4.208 1.957.32.984-1.619 1.635-3.883 1.635h-11.323c-2.263 0-3.877-.65-4.202-1.635 0-.978 1.615-1.957 3.883-1.957zm21.991 0h11.322c1.939 0 3.879.979 4.203 1.957.324.984-1.295 1.635-3.883 1.635H306.97c-1.943 0-3.883-.65-4.206-1.635-.32-.978 1.619-1.957 3.882-1.957zm21.671 0h11.317c2.264 0 4.208.979 4.532 1.957.32.984-1.293 1.635-3.557 1.635h-11.323c-2.264 0-4.203-.65-4.527-1.635-.324-.978 1.294-1.957 3.558-1.957zm21.993 0h11.321c1.939 0 4.203.979 4.528 1.957.323.984-1.295 1.635-3.56 1.635h-11.317c-2.268 0-4.206-.65-4.531-1.635-.32-.978 1.294-1.957 3.559-1.957zm21.67 0h11.323c2.262 0 4.525.979 4.851 1.957.32.984-1.294 1.963-3.558 1.963-3.883 0-7.439-.328-11.322-.328-2.264 0-4.202-.65-4.528-1.635-.324-.978 1.296-1.957 3.234-1.957zm21.996 0h11.317c1.944 0 4.208.979 4.853 1.957.324.984-1.294 1.963-3.558 1.963H395.27c-2.267 0-4.207-.979-4.531-1.963-.646-.978.973-1.957 3.237-1.957zm21.992.328h10.998c2.263 0 4.526.651 5.175 1.63.32.984-.973 1.963-3.236 1.963h-11.318c-2.264 0-4.527-.979-5.178-1.963-.324-.979 1.295-1.63 3.559-1.63zm-165.597 67.917h254.864c1.618 0 2.589 2.285 2.589 4.897 0 2.614-.971 4.898-2.589 4.898H250.371v-9.795z"/><path fill="#A1A1A1" d="M250.371 507.123h254.864c1.618 0 2.264-3.27 2.264-4.248s-.646-4.242-2.264-4.242H250.371v8.49z"/><path fill="#4E5A62" d="M511.381 496.348c0-.327-.324-.656-.649-.983-4.847-6.856-10.023-13.711-15.2-20.572-5.171-6.854-10.348-14.038-15.525-21.222-5.172-6.856-10.348-14.04-15.524-21.224-5.173-6.855-10.349-14.039-15.526-21.223-.969-1.307-2.583-1.963-4.201-1.963H70.537c-1.615 0-3.229.656-4.203 1.963-5.177 7.184-10.673 14.039-15.846 21.223-5.177 7.184-10.678 14.367-15.85 21.224-5.176 7.184-10.672 14.038-15.85 21.222a58111.356 58111.356 0 0 1-15.525 20.572c0 .327-.32.656-.645.983C1.325 498.306 1 500.59 1 502.875 1 507.446 3.264 513 8.761 513h496.475c5.496 0 7.765-5.554 7.765-10.125-.001-2.285-.325-4.569-1.62-6.527zm-6.146 11.425H8.761c-1.614 0-2.583-2.284-2.583-4.898 0-1.306.32-2.936.969-3.591 0-.328 0-.651.324-.651 5.177-6.86 10.349-13.716 15.521-20.572 5.176-7.184 10.353-14.367 15.854-21.227 5.172-7.184 10.668-14.367 15.846-21.224 5.176-7.184 10.673-14.039 15.846-21.223h374.217c5.177 7.184 10.348 14.039 15.525 21.223 5.497 7.184 10.349 14.04 15.523 21.224 5.178 6.859 10.675 14.043 15.847 21.227 4.852 6.856 10.028 13.712 14.88 20.572.324 0 .324.323.646.651.324.655.649 2.285.649 3.591-.001 2.614-.971 4.898-2.59 4.898z"/><path fill="#9badff" d="M366.159 240.676c9.054 0 16.169 7.184 16.169 15.997 0 4.569-1.938 8.817-5.171 11.431l-4.853 8.49-6.146 11.098-6.146-11.098-4.853-8.49c-2.908-2.941-4.851-7.184-4.851-11.431.002-8.814 7.117-15.997 15.851-15.997zm0 8.813c4.526 0 8.084 3.591 8.084 7.839 0 4.57-3.558 8.162-8.084 8.162-4.202 0-7.761-3.592-7.761-8.162 0-4.248 3.559-7.839 7.761-7.839z"/></svg>