<svg xmlns="http://www.w3.org/2000/svg" width="600" height="600" overflow="hidden!important"><path d="M301.5 301.5h-3v-3h3v3z" fill="#2a232b"/><path d="M586.251 599.334c-6.588-14.238-24.585-35.337-44.58-41.166-24.717-7.209-80.511-15.924-101.199-20.769-16.584-3.888-49.986-33.882-61.692-43.95-2.1-1.8-3.819-5.517-3.861-8.28-.417-32.592 12.585-119.172 12.585-119.172H212.499s13.002 86.577 12.579 119.172c-.033 2.763-1.761 6.48-3.855 8.28-11.706 10.068-45.108 40.062-61.692 43.95-20.691 4.845-76.485 13.857-101.199 21.066-20.001 5.826-37.992 26.628-44.58 40.866C2.628 623.355 0 666.831 0 704.331h600c0-37.497-2.631-80.973-13.749-104.997z" fill="#764630"/><path d="M477.468 552.174c73.026 10.626 103.758 26.124 113.382 152.163H600c0-37.5-2.631-80.976-13.749-105-6.588-14.238-24.585-35.337-44.58-41.166-24.717-7.209-80.511-15.924-101.199-20.769-16.584-3.888-54.726-36.207-64.929-49.05 10.08 14.112 38.373 46.815 63.162 55.38 11.859 4.098 21.735 5.964 38.763 8.442zm-316.17-8.442c24.789-8.562 53.079-41.268 63.162-55.38-10.2 12.84-48.342 45.162-64.929 49.05-20.688 4.845-76.482 13.857-101.199 21.066-19.995 5.826-37.992 26.628-44.58 40.866-11.118 24.024-13.749 67.5-13.749 105h9.15c9.564-125.232 40.425-141.549 113.382-152.163 17.025-2.475 26.904-4.341 38.763-8.439z" fill="#855844"/><path d="M286.938 592.86s-15.222-4.827-21.249-7.137c-31.347-12.027-133.185-19.821-133.185-19.821s107.262 4.257 130.932 8.337c-1.374-14.301-9.051-60.012-9.051-60.012s15.447 50.445 19.227 63.171c2.022 6.804 13.326 15.462 13.326 15.462zm32.397-4.026c-.267.219-.573.504-.906.804.339-.255.645-.522.906-.804zm-32.397 4.026s8.679 8.976 13.041 9.09c5.73.153 14.484-8.697 18.453-12.312-3.795 2.871-12.477 4.173-15.93 4.308-3.99.153-15.564-1.086-15.564-1.086zm63.054-22.557c-4.635.744-13.158 2.367-13.158 2.367l6.861-44.67c-1.938 9.213-13.422 48.633-24.36 60.834 5.73-4.848 18.474-7.173 24.972-8.112 30.708-4.452 30.696-4.449 123.186-14.82 0 0-87.213-.465-117.501 4.401z" fill="#673620"/><path d="M586.251 599.334c-6.588-14.238-24.585-35.337-44.58-41.166-24.717-7.209-80.511-15.924-101.199-20.769-16.584-3.888-49.986-33.882-61.692-43.95-2.1-1.8-3.819-5.517-3.861-8.28-.417-32.592 12.585-119.172 12.585-119.172H212.499s13.002 86.577 12.579 119.172c-.033 2.763-1.761 6.48-3.855 8.28-11.706 10.068-45.108 40.062-61.692 43.95-20.691 4.845-76.485 13.857-101.199 21.066-20.001 5.826-37.992 26.628-44.58 40.866C2.628 623.355 0 666.831 0 704.331h600c0-37.497-2.631-80.973-13.749-104.997z" fill="none" stroke="#481c08" stroke-width="4.5"/><path d="M75.085 163.986c6.598 3.574 14.825 5.886 25.017 5.88 10.183.006 18.332-2.283 24.839-5.829-.428-.713-.708-1.563-.72-2.304-.126-9.877 3.345-34.021 4.076-38.983H71.703c.73 4.963 4.202 29.106 4.074 38.982-.009.709-.28 1.547-.692 2.254z" fill="url(#SvgjsLinearGradient3072)" transform="scale(3)"/><path d="M335.418 707.664c-57.405 0-124.365-.222-204.699-.687l-71.037-.384c-42.894-.234-45.423-.282-50.661-.282l-14.697.021c-13.713-125.625 43.23-158.61 131.286-170.124 23.367-3.291 46.347-9.291 64.377-20.916 48.981 66.729 194.433 52.686 219.309-1.887 4.17 1.59 7.617 3.645 11.931 5.202 13.998 10.299 33.216 17.508 52.884 18.597 78.024 4.323 133.257 38.988 132.171 163.92.009.495.012 3.525-.039 4.47-37.539 0-51.618.363-81.102.786-39.993.57-89.769 1.281-189.687 1.281-.015.003-.024.003-.036.003z" fill="#152c5e"/><path d="M603.165 703.92c-1.23-22.155-12.192-84.174-31.08-112.623-37.446-56.415-126.78-36.618-147.396-59.079-14.958 30.477-74.925 49.785-94.782 52.62 57.543-19.08 81.711-32.877 91.26-65.61 19.215 24.99 123.222 5.913 164.151 72.993 11.985 19.641 23.382 82.158 17.847 111.699zM167.433 532.884c4.071-.945 6.102-3.747 10.143-4.842l-4.278-5.673c-27.147 21.156-128.727 7.935-163.557 72.108C-1.236 614.7-8.64 662.841-2.835 703.794-1.224 678.642-.438 624.852 18.45 596.4c33.972-51.18 95.922-37.659 142.857-59.325 20.949 25.8 53.664 38.484 86.952 43.731-41.763-10.893-65.709-29.286-80.826-47.922z" fill="#233b6d"/><path d="M405.93 519.732c-16.596 34.542-142.05 74.769-212.79 2.637-4.398 1.866-17.556 6.336-17.556 6.336 51.528 70.158 202.533 70.602 242.727-.342-.177-.069-8.295-6.555-12.381-8.631z" fill="#0a1f4f"/><path d="M409.14 513.006c-28.239 56.466-175.191 64.455-219.036 1.896-16.011 4.734-31.407 14.823-46.908 17.346C50.436 546.063-18.138 553.005-6 706.656c29.82 0-19.833-.195 136.713.645 370.77 2.13 358.686-1.383 475.818-1.383.087-.42.045-4.356.063-4.788 6.288-169.308-92.556-159.312-159.36-170.985-9.432-2.154-18.198-8.319-25.905-11.835-4.257-1.947-7.875-3.696-12.189-5.304zm-220.098 3.789c38.922 70.176 192.657 56.097 222.339.303 3.6 1.512 4.521 2.112 8.694 3.591-30.744 64.467-182.826 85.011-245.031 3.489.438-.123 9.612-5.739 13.998-7.383zM-2.535 704.334c-7.263-79.293 5.391-144.129 98.34-160.035 30.828-5.688 49.671-5.886 76.152-17.382 50.289 82.215 216.294 69.474 250.794-3.915 4.956 4.227 12.684 9.09 22.215 11.355 54.294 12.897 164.514-2.682 158.694 169.974-162.171-2.106-296.595-7.032-606.195.003z" fill="#000f30"/><path d="M141.003 249.693c-4.128-7.359-16.914-25.44-29.94-21.009-8.247 2.805-9.879 11.979-11.205 20.079-1.764 10.773 1.413 32.082 4.167 39.78 2.643 7.401 10.599 21.69 15.792 27.135 6.39 6.675 14.325 27.972 15.582 30.183 1.98 3.486 4.608 8.733 12.366 8.076 8.559-.732 13.752-5.55 17.568-6.363 9.426-1.998-13.587-78.726-24.33-97.881z" fill="#764630" stroke="#481c08" stroke-width="4.5"/><path d="M132.591 294.312c-.396-1.743.021-4.68.426-7.512.372-2.583.72-5.025.507-6.753-.801-6.462-5.319-18.747-8.271-25.401-3.396-7.662-8.889-17.31-15.786-19.797-2.85-1.029-4.725.201-5.814 1.452-.798.915-.975 1.995-.714 2.121.258.126.855-.762 1.716-1.605.705-.687 1.737-1.278 3.153-1.155-.57 3.219-3.501 20.649-2.232 32.535.999 9.345 4.779 16.326 5.37 17.373.087 1.101.231 2.178.444 3.225 2.787 13.641 14.913 29.151 19.134 34.227.777.939 1.593 1.491 1.794 1.269.198-.228-.282-1.161-1.059-2.1-4.164-5.037-16.173-20.493-18.867-33.654-2.856-13.968 6.954-34.668 9.144-39.051a80.707 80.707 0 0 1 2.79 5.679c.57 1.293 1.206 2.808 1.857 4.437-1.287 2.286-10.302 18.96-7.014 32.301 1.218 4.923 6.705 11.265 10.341 12.999 2.001.96 2.757 2.391 3.627 4.047 1.008 1.92 2.154 4.095 5.484 5.676.675.324 1.287.453 1.83.453.939 0 1.653-.405 2.175-.879.054.84.051 1.92.027 2.91-.036 1.293.126 2.349.411 2.373.282.024.588-.996.621-2.28.048-1.578.039-3.531-.216-4.464-.744-2.751-3.024-5.859-5.439-9.144-2.367-3.246-4.821-6.585-5.439-9.282zm-21.741-12.093c-6.531-21.417 1.968-39.9 3.432-42.84 2.55 2.466 4.8 5.757 6.63 8.985-1.332 2.574-9.789 19.449-10.062 33.855zm28.173 31.326c-3.012-1.425-4.017-3.345-4.998-5.199-.879-1.677-1.794-3.408-4.107-4.515-.504-.243-1.056-.609-1.626-1.029-7.458-18.789.816-27.003 2.889-28.686.633 2.298 1.107 4.404 1.317 6.093.189 1.551-.156 4.017-.501 6.402-.426 2.955-.858 6.012-.411 7.992.678 2.946 3.207 6.393 5.652 9.726 2.169 2.958 4.398 6.009 5.163 8.496-.324.492-1.35 1.683-3.378.72z" fill="#481c08"/><path d="M458.208 249.693c4.131-7.359 16.917-25.44 29.94-21.009 8.25 2.805 9.879 11.979 11.208 20.079 1.764 10.773-1.413 32.082-4.167 39.78-2.643 7.401-10.599 21.69-15.798 27.135-6.387 6.675-14.325 27.972-15.579 30.183-1.974 3.486-4.605 8.733-12.363 8.076-8.562-.732-13.752-5.55-17.571-6.363-9.426-1.998 13.59-78.726 24.33-97.881z" fill="#764630" stroke="#481c08" stroke-width="4.5"/><path d="M461.181 303.588c-2.415 3.288-4.692 6.393-5.439 9.144-.258.933-.264 2.886-.216 4.464.036 1.284.339 2.304.621 2.28s.444-1.08.411-2.373c-.024-.993-.024-2.07.03-2.91.522.474 1.236.879 2.175.879.546 0 1.155-.129 1.827-.453 3.327-1.578 4.476-3.756 5.484-5.676.867-1.656 1.629-3.084 3.627-4.047 3.639-1.734 9.123-8.076 10.341-12.999 3.288-13.341-5.724-30.015-7.014-32.301.651-1.632 1.29-3.147 1.857-4.437a82.05 82.05 0 0 1 2.79-5.679c2.19 4.38 12 25.083 9.147 39.051-2.688 13.161-14.7 28.617-18.867 33.654-.774.939-1.254 1.872-1.056 2.1.198.222 1.014-.327 1.794-1.269 4.218-5.076 16.347-20.586 19.137-34.227.21-1.05.351-2.124.438-3.225.591-1.047 4.377-8.028 5.373-17.373 1.266-11.883-1.665-29.316-2.232-32.535 1.419-.126 2.442.468 3.153 1.155.861.843 1.458 1.731 1.716 1.605.258-.126.081-1.206-.714-2.121-1.089-1.251-2.964-2.481-5.814-1.452-6.897 2.49-12.393 12.135-15.786 19.797-2.952 6.654-7.47 18.939-8.274 25.401-.216 1.728.135 4.17.51 6.753.405 2.835.819 5.772.423 7.512-.615 2.703-3.069 6.042-5.442 9.282zm17.121-55.227c1.833-3.225 4.083-6.519 6.633-8.985 1.464 2.94 9.96 21.423 3.435 42.84-.279-14.403-8.733-31.278-10.068-33.855zm-21.492 64.464c.762-2.487 2.994-5.538 5.163-8.496 2.448-3.333 4.974-6.78 5.655-9.726.444-1.98.012-5.037-.411-7.992-.345-2.385-.69-4.851-.498-6.402.204-1.689.681-3.798 1.314-6.093 2.073 1.683 10.347 9.897 2.895 28.686-.573.42-1.125.789-1.629 1.029-2.313 1.107-3.222 2.838-4.107 4.515-.978 1.854-1.986 3.774-4.998 5.199-2.031.963-3.057-.228-3.384-.72z" fill="#481c08"/><path d="M300.309 2.601c-100.866-.159-182.451 81.84-182.607 183.186-.024 16.095 2.007 31.707 5.859 46.59h.012c.033.162 24.363 85.725 29.424 130.902 3.732 33.306 37.761 122.388 147.309 122.319 109.545.066 140.814-88.293 146.691-122.319 7.74-44.787 30.003-130.74 30.039-130.902h.015c3.849-14.883 5.883-30.495 5.856-46.59-.15-101.346-81.738-183.345-182.598-183.186z" fill="#764630"/><path d="M407.565 37.482c35.283 33.585 57.669 83.457 57.738 139.224.024 16.095-1.806 31.707-5.283 46.59h-.015c-.033.162-20.151 86.118-27.15 130.902-5.313 34.029-33.567 122.385-132.552 122.319-98.988.063-129.738-89.016-133.107-122.319-4.578-45.177-26.559-130.743-26.589-130.902h-.012c-3.486-14.883-5.316-30.495-5.295-46.59.078-55.77 22.467-105.645 57.75-139.23-45.597 33.279-75.258 87.27-75.351 148.314-.024 16.095 2.007 31.707 5.859 46.59h.012c.033.162 24.363 85.725 29.424 130.902 3.732 33.306 37.761 122.388 147.309 122.319 109.545.066 140.814-88.293 146.691-122.319 7.74-44.787 30.003-130.74 30.039-130.902h.015c3.849-14.883 5.883-30.495 5.856-46.59-.087-61.041-29.745-115.029-75.339-148.308z" fill="#6e3e27"/><path d="M300.309 2.601c-100.866-.159-182.451 81.84-182.607 183.186-.024 16.095 2.007 31.707 5.859 46.59h.012c.033.162 24.363 85.725 29.424 130.902 3.732 33.306 37.761 122.388 147.309 122.319 109.545.066 140.814-88.293 146.691-122.319 7.74-44.787 30.003-130.74 30.039-130.902h.015c3.849-14.883 5.883-30.495 5.856-46.59-.15-101.346-81.738-183.345-182.598-183.186z" fill="none" stroke="#481c08" stroke-width="4.5"/><path d="M100.2 142.947c-2.832.144-3.644-2.753-3.644-2.753s3.931.565 6.991-.353c.001.001-.855 2.981-3.347 3.106z" fill="url(#SvgjsLinearGradient3111)" transform="scale(3)"/><path d="M301.464 422.28c-5.952.3-11.295-.231-11.631-.267a.747.747 0 0 1-.672-.816c.045-.414.429-.699.822-.672.123.009 12.288 1.215 20.214-1.011.393-.096.813.123.927.522s-.12.81-.519.924c-2.802.786-6.054 1.164-9.141 1.32z" fill="#481c08"/><path d="M247.5 390.897s37.596 4.458 50.154 4.497c13.659.036 57.846-4.497 57.846-4.497-12.774 10.602-26.829 20.796-58.665 20.997-28.476.183-35.772-10.158-49.335-20.997z" fill="#fff"/><path d="M247.5 390.897s37.596 4.458 50.154 4.497c13.659.036 57.846-4.497 57.846-4.497-12.774 10.602-26.829 20.796-58.665 20.997-28.476.183-35.772-10.158-49.335-20.997z" fill="none" stroke="#481c08" stroke-width="2.25"/><path d="M61.752 82.523c-.506-2.285 5.191-3.973 12.711-3.051 7.518.923 12.738 5.524 12.052 7.844-.38 1.286-10.639 3.245-14.253 2.847-3.664-.405-9.288-2.123-10.51-7.64z" fill="url(#SvgjsRadialGradient3381)" transform="scale(3)"/><path d="M240.75 252.75c0 9.939-8.061 17.997-18 17.997s-18-8.058-18-17.997c0-9.948 8.061-18.003 18-18.003s18 8.058 18 18.003z" fill="#22160d"/><path d="M212.286 261.165c2.625-.216.3-.918.3-.918-1.299-.699-3.744-1.776-3.744-2.763 0-3.093 4.242-3.897-.102-5.115-4.512-4.14 3.501-4.056 3.441-4.194-2.925-7.128.897-3.213 2.505-5.319 5.964-7.797 1.662.801 4.899 0 1.173-.288-2.34-4.593.102-3.99 1.617.396 1.986 1.74 1.986 1.74 1.179-.231 3.024-2.046 3.024-2.046 2.247.678 3.825 3.87 3.129 3.273 1.104-.135 2.652-.663 3.858-1.023 0 0 .21-.717.417-.099 2.751 7.983 9.852 7.41 1.677 9.72 0 0-.528 0 1.146 1.326 8.13 6.492-6.306 4.485 1.353 7.47.312-.312-4.59 2.895-4.59 3.783 0 1.503-3.126 5.454-5.838 3.9-1.512-.864-1.743 1.8-2.631.57-1.743-2.409-5.226-.105-3.939-2.319 1.902-1.563-1.962.612-2.712.612-2.484 0 3.249-8.349 11.682-2.145 2.466 1.806-2.592-4.299 1.875-4.299.447.147.312-1.563.312-2.046-2.322-.453 4.17-.009 4.17-3.786.411.081 1.527-1.05-4.905 0 0 0-.204-2.25-.102-2.658.33-1.314 3.642-.894 2.712-2.25 0-.003-2.397-4.812-2.397-4.812-7.719-1.242-3.306-2.016-8.133-1.023-.228 1.134-10.335 5.952-10.014 8.187.3 2.106 6.345 2.814.624 6.546 8.574 16.416-6.33-.375-.105 3.678z" fill="#312318"/><path d="M222.75 236.997l.513 13.179 5.511-11.979-4.569 12.369 9.681-8.955-8.955 9.678 12.372-4.569-11.976 5.517 13.176.51-13.176.51 11.976 5.517-12.372-4.569 8.955 9.678-9.681-8.955 4.569 12.369-5.511-11.979-.513 13.179-.513-13.179-5.514 11.979 4.566-12.369-9.678 8.955 8.955-9.678-12.372 4.569 11.976-5.517-13.17-.51 13.17-.51-11.976-5.517 12.372 4.569-8.955-9.678 9.678 8.955-4.566-12.369 5.514 11.979.513-13.179z" fill="#030201"/><path d="M225.138 240.951l-1.617 9.945 5.943-8.133-5.298 8.571 8.61-5.244-8.175 5.892 9.957-1.545-9.804 2.313 9.798 2.382-9.951-1.614 8.136 5.946-8.574-5.295 5.244 8.607-5.892-8.175 1.548 9.957-2.313-9.81-2.385 9.792 1.617-9.945-5.952 8.133 5.304-8.571-8.607 5.244 8.175-5.892-9.957 1.548 9.807-2.313-9.792-2.379 9.945 1.611-8.136-5.946 8.574 5.295-5.241-8.607 5.892 8.175-1.548-9.954 2.316 9.81 2.376-9.798z"/><path d="M229.5 252.75a6.75 6.75 0 1 1-13.501-.001 6.75 6.75 0 0 1 13.501.001z" opacity=".9"/><path d="M215.661 265.683c-.993.996-2.955.645-4.38-.783-1.428-1.425-1.779-3.387-.783-4.383.993-.993 2.955-.642 4.38.783 1.428 1.428 1.779 3.387.783 4.383z" fill="#fff" opacity=".7"/><path d="M237.168 249.204c-1.488 1.488-5.091.3-8.046-2.658-2.958-2.958-4.146-6.561-2.658-8.049 1.488-1.488 5.091-.3 8.046 2.658 2.958 2.961 4.146 6.561 2.658 8.049z" fill="#fff" opacity=".9"/><path d="M159.882 249c2.427 32.697 34.911 70.749 61.518 66.708 31.494.318 62.592-23.604 62.592-66.915s-15.261-79.584-63.381-79.584c-34.5-.003-60.729 36.48-60.729 79.791zm25.374-1.431c-1.518-6.855 15.573-11.919 38.133-9.153 22.554 2.769 38.214 16.572 36.156 23.532-1.14 3.858-31.917 9.735-42.759 8.541-10.992-1.215-27.864-6.369-31.53-22.92z" fill="#764630"/><path d="M72.262 90.163c3.614.398 13.873-1.561 14.253-2.847.687-2.32-4.534-6.921-12.052-7.844-6.46-.792-11.563.344-12.556 2.128.898-6.4 7.7-11.397 15.987-11.434 8.911-.037 16.148 5.676 16.172 12.765.021 7.088-7.185 12.862-16.095 12.902-8.913.037-16.149-5.676-16.173-12.764 0-.105.016-.208.019-.313 1.33 5.327 6.834 7.008 10.445 7.407z" fill="url(#SvgjsRadialGradient3404)" transform="scale(3)"/><path d="M61.752 82.523c-.506-2.285 5.191-3.973 12.711-3.051 7.518.923 12.738 5.524 12.052 7.844-.38 1.286-10.639 3.245-14.253 2.847-3.664-.405-9.288-2.123-10.51-7.64z" fill="url(#SvgjsRadialGradient3409)" transform="scale(3)"/><path d="M186.444 232.251c12.624-5.934 28.05-6.48 41.514-3.015 7.212 1.683 14.895 3.855 21.189 7.914 5.835 3.405 10.575 7.5 15.006 12.57-4.026-5.103-8.319-9.354-13.869-12.81-6.828-4.248-14.307-6.882-22.092-8.748-13.758-3.378-29.166-2.61-41.748 4.089z" fill="#481c08"/><path d="M188.307 234.06c2.64-1.056 12.195-3 16.368-3.198 5.061-.246 15.219.375 20.205 1.272 10.122 1.824 27.753 7.449 35.034 21.552 2.238 4.335.222 7.368-.369 8.025.9-7.278-14.514-20.238-36.156-22.812-22.56-2.682-39.651 2.229-38.133 8.874 3.666 16.044 20.538 21.039 31.53 22.215 12.297 1.317 35.052-4.617 38.058-5.259-5.997 3.027-22.572 6.285-29.301 6.909-2.232.21-6.72.312-8.958.255-17.847-.474-30.507-9.525-35.187-21.78-3.006-7.878.282-13.407 6.909-16.053z"/><path d="M137.849 82.523c.506-2.285-5.191-3.973-12.711-3.051-7.518.923-12.738 5.524-12.052 7.844.38 1.286 10.639 3.245 14.253 2.847 3.664-.405 9.288-2.123 10.51-7.64z" fill="url(#SvgjsRadialGradient3388)" transform="scale(3)"/><path d="M395.25 252.747c0 9.948-8.052 18-18 18s-18-8.052-18-18 8.052-18 18-18 18 8.052 18 18z" fill="#22160d"/><path d="M366.774 261.168c2.637-.228.315-.915.315-.915-1.302-.702-3.762-1.776-3.762-2.778 0-3.093 4.254-3.885-.069-5.115-4.536-4.131 3.48-4.044 3.411-4.185-2.919-7.137.915-3.216 2.532-5.325 5.94-7.788 1.653.81 4.887 0 1.161-.282-2.355-4.587.105-3.99 1.617.405 1.968 1.74 1.968 1.74 1.194-.228 3.024-2.04 3.024-2.04 2.25.669 3.831 3.867 3.129 3.27 1.125-.141 2.673-.669 3.867-1.02 0 0 .21-.72.423-.105 2.742 7.98 9.843 7.419 1.689 9.72 0 0-.528 0 1.125 1.317 8.121 6.504-6.294 4.482 1.371 7.47.315-.3-4.605 2.901-4.605 3.798 0 1.494-3.129 5.448-5.835 3.885-1.512-.861-1.758 1.812-2.637.579-1.722-2.409-5.238-.105-3.939-2.319 1.899-1.563-1.968.615-2.706.615-2.496 0 3.234-8.349 11.673-2.145 2.46 1.794-2.601-4.308 1.899-4.308.423.141.315-1.563.315-2.04-2.355-.456 4.149-.018 4.149-3.798.423.087 1.548-1.038-4.887 0 0 0-.21-2.25-.105-2.655.315-1.317 3.621-.897 2.706-2.25l-2.391-4.815c-7.734-1.23-3.306-2.004-8.157-1.02-.21 1.143-10.335 5.958-10.02 8.19.315 2.109 6.363 2.814.633 6.54 8.574 16.443-6.33-.363-.108 3.699z" fill="#312318"/><path d="M377.25 236.997l.528 13.185 5.484-11.988-4.569 12.375 9.702-8.964-8.964 9.687 12.375-4.569-11.988 5.52 13.185.51-13.185.51 11.988 5.52-12.375-4.569 8.964 9.687-9.702-8.964 4.569 12.375-5.484-11.988-.528 13.173-.528-13.185-5.52 11.988 4.569-12.375-9.669 8.964 8.964-9.687-12.375 4.569 11.988-5.52-13.185-.51 13.185-.51-11.988-5.52 12.375 4.569-8.964-9.687 9.669 8.964-4.569-12.375 5.52 11.988.528-13.173z" fill="#030201"/><path d="M379.641 240.951l-1.617 9.948 5.94-8.139-5.31 8.577 8.613-5.256-8.157 5.907 9.948-1.548-9.81 2.304 9.81 2.391-9.948-1.617 8.121 5.94-8.577-5.292 5.238 8.613-5.871-8.175 1.548 9.948-2.319-9.801-2.391 9.792 1.617-9.948-5.94 8.139 5.31-8.577-8.613 5.256 8.157-5.907-9.948 1.548 9.81-2.304-9.81-2.391 9.948 1.617-8.121-5.94 8.577 5.292-5.238-8.613 5.871 8.175-1.548-9.948 2.319 9.81 2.391-9.801z"/><path d="M384 252.747c0 3.726-3.024 6.75-6.75 6.75s-6.75-3.024-6.75-6.75 3.024-6.75 6.75-6.75 6.75 3.024 6.75 6.75z" opacity=".9"/><path d="M370.149 265.686c-.984.984-2.952.651-4.359-.792-1.44-1.425-1.794-3.375-.774-4.377.984-.984 2.952-.633 4.359.792 1.44 1.422 1.794 3.375.774 4.377z" fill="#fff" opacity=".7"/><path d="M391.665 249.195c-1.476 1.494-5.097.315-8.052-2.655-2.952-2.952-4.149-6.558-2.637-8.034 1.476-1.494 5.064-.315 8.016 2.655 2.988 2.955 4.149 6.558 2.673 8.034z" fill="#fff" opacity=".9"/><path d="M378.189 169.206c-48.12 0-63.381 36.273-63.381 79.584s31.098 67.236 62.592 66.915c26.607 4.041 59.091-34.011 61.518-66.708.003-43.308-26.229-79.791-60.729-79.791zm3.828 101.283c-10.842 1.194-41.619-4.683-42.759-8.541-2.061-6.96 13.602-20.763 36.156-23.532 22.56-2.766 39.651 2.301 38.133 9.153-3.666 16.551-20.538 21.705-31.53 22.92z" fill="#764630"/><path d="M127.339 90.163c-3.614.398-13.873-1.561-14.253-2.847-.687-2.32 4.534-6.921 12.052-7.844 6.46-.792 11.563.345 12.556 2.128-.898-6.4-7.7-11.397-15.987-11.434-8.911-.037-16.148 5.676-16.172 12.765-.021 7.088 7.185 12.862 16.095 12.902 8.913.037 16.149-5.676 16.173-12.764 0-.105-.016-.208-.019-.313-1.331 5.327-6.835 7.008-10.445 7.407z" fill="url(#SvgjsRadialGradient3424)" transform="scale(3)"/><path d="M137.849 82.523c.506-2.285-5.191-3.973-12.711-3.051-7.518.923-12.738 5.524-12.052 7.844.38 1.286 10.639 3.245 14.253 2.847 3.664-.405 9.288-2.123 10.51-7.64z" fill="url(#SvgjsRadialGradient3429)" transform="scale(3)"/><path d="M412.356 232.251c-12.624-5.934-28.05-6.48-41.514-3.015-7.212 1.683-14.895 3.855-21.189 7.914-5.835 3.405-10.575 7.5-15.006 12.57 4.026-5.103 8.319-9.354 13.869-12.81 6.828-4.248 14.307-6.882 22.092-8.748 13.761-3.378 29.169-2.61 41.748 4.089z" fill="#481c08"/><path d="M410.496 234.06c-2.64-1.056-12.195-3-16.368-3.198-5.061-.246-15.219.375-20.205 1.272-10.122 1.824-27.753 7.449-35.034 21.552-2.238 4.335-.222 7.368.369 8.025-.9-7.278 14.514-20.238 36.156-22.812 22.56-2.682 39.651 2.229 38.133 8.874-3.666 16.044-20.538 21.039-31.53 22.215-12.297 1.317-35.052-4.617-38.058-5.259 5.997 3.027 22.572 6.285 29.301 6.909 2.232.21 6.72.312 8.958.255 17.847-.474 30.507-9.525 35.187-21.78 3.006-7.878-.282-13.407-6.909-16.053z"/><path d="M141 113.974c.035 22.622-18.292 40.994-40.938 41.025-22.642.037-41.028-18.273-41.063-40.9-.035-22.62 18.292-41.064 40.937-41.1 22.643-.035 41.031 18.35 41.064 40.975z" fill="url(#SvgjsRadialGradient2886)" transform="scale(3)"/><path d="M137.5 53.999c0 20.711-16.789 37.5-37.499 37.5-20.711 0-37.501-16.789-37.501-37.5s16.79-37.5 37.501-37.5c20.71 0 37.499 16.789 37.499 37.5z" fill="url(#SvgjsRadialGradient2890)" transform="scale(3)"/><path d="M162 222.567c29.862-29.922 50.283-17.745 91.767-9.792 2.535.486 18.96 4.617 15.93 10.407-1.449 2.772-6.108 2.442-8.709 2.394-41.064-.768-61.032-29.985-98.988-3.009zm276 0c-29.859-29.922-50.283-17.745-91.767-9.792-2.538.486-18.96 4.617-15.933 10.407 1.449 2.772 6.108 2.442 8.709 2.394 41.064-.768 61.035-29.985 98.991-3.009z" fill="#2a232b"/><path d="M299.271 359.997c-2.73 0-5.64.018-8.163-1.113-2.697-1.215-4.494-1.701-7.287-2.706-2.697-.972-5.94 1.398-8.64 1.623-2.184.18-4.677-.447-6.009-2.157-4.497-5.751.858-9.288.858-9.288s-1.749 4.038-.636 5.826c.957 1.527 2.367 2.775 4.107 3.189 2.904.705 5.667-1.428 8.517-1.65 3.186-.249 5.499-.306 7.806 1.557 2.301 1.857 4.818 2.211 7.746 2.361 2.718.147 5.571.264 8.124-.789 2.229-.909 4.095-2.505 6.186-3.678 4.446-2.493 7.941.636 12.582 1.899 3.714 1.014 7.725-2.58 6.27-6.675-.831-2.331-.696-3.72-.696-3.72s3.543 1.605 3.33 5.562c-.267 4.926-4.563 8.382-9.411 7.083-2.382-.63-4.95-2.424-7.479-1.968-2.571.459-4.551.462-6.687 1.866-3.228 2.124-6.648 2.778-10.518 2.778z" fill="#481c08"/><path d="M279.948 330.633s9.735-13.554 18.579-13.719c8.19-.15 18.972 11.904 18.972 11.904s-9.933-4.161-19.764-3.468c-8.775.615-17.787 5.283-17.787 5.283z" fill="#6e3e27"/><path d="M302.432 507.696c-6.327-1.34-22.971-6.612-27.959-8.721-9.69-3.99-15.903-9.206-18.98-15.96-5.843-14.05 9.034-58.824 47.31-47.396 22.23-4.645 33.886 2.907 44.374 23.57 5.073 10.545 5.956 18.126 2.85 24.567-4.902 10.146-20.036 17.755-47.595 23.94z" fill="#2a232b"/><path d="M302.432 508.01c-6.498-1.369-23.285-6.727-28.073-8.75-8.55-3.534-15.618-8.436-19.123-16.103-4.503-10.83 2.992-38.703 23.17-47.167-12.198 12.54-22.857 30.295-12.454 46.654 8.75 13.139 30.01 17.072 36.309 21.005 12.055-5.871 30.41-7.125 39.016-24.14 5.102-9.177-.285-29.839-10.744-41.182 6.868 4.19 12.112 11.286 16.929 20.748 10.06 20.976 7.495 37.107-45.03 48.934zm.855-.343c-2.166-2.85-2.08-2.622-4.218-6.669-11.628-22.743-29.156-27.987-22.401-43.149-2.337 12.227 11.713 20.435 17.157 27.332.883 1.111 1.34 1.881 1.34 1.881 5.899 10.06 4.787 12.511 8.122 20.605zm16.815-17.071c11.884-7.923 13.737-24.852 3.676-33.858 6.726 9.775 4.646 26.448-3.676 33.858zm-23.627-44.859c-.37-3.79 1.596-4.389 1.596-4.389s-1.51.313-2.308 2.308c-3.335 8.892 5.529 14.022 9.633 32.918.912-16.787-7.724-20.093-8.92-30.837z" fill="#1b141c"/><path d="M347.405 459.075c-9.747-19.18-21.318-28.757-44.546-23.712-38.332-11.457-53.637 33.345-47.652 47.794 3.506 7.667 10.574 12.569 19.124 16.103 4.788 2.023 21.574 7.381 28.072 8.75 52.554-11.828 55.12-27.959 45.002-48.935zM304.17 506.67c-.57.2-1.14.37-1.681.513-22.515-7.382-39.045-13.196-44.403-24.995-5.016-11.97 5.3-54.378 44.745-46.17 22.885-3.277 32.12 5.387 41.838 24.168 13.195 28.101-5.957 34.998-40.499 46.484z"/><path d="M306.99 374.52c-1.92-.3-5.28-.48-6.75.81l-.24.24c-.09-.09-.15-.18-.24-.24-1.47-1.26-4.83-1.11-6.75-.81L225.6 391.2l67.98-2.61c1.83.09 3.6-.57 4.92-1.86.63-.63 2.34-.63 3 0a6.782 6.782 0 0 0 4.92 1.86l67.98 2.61-67.41-16.68zm168.3-250.545C420-14.295 300 1.215 300 1.215s-120-15.507-175.29 122.76c-27.735 69.36 6.474 150.972 6.474 150.972h17.478c-15.282-65.256 2.388-52.986 3.528-65.166.354-3.765-.9-10.101-1.263-13.866-1.776-18.336 5.946-54.087 15.735-69.519 4.809-7.578 16.107-19.977 24.522-23.097 29.91-11.082 60.132 2.145 68.562 4.263 13.383 3.36 67.119 3.36 80.508 0 10.029-2.517 39.546-14.715 68.562-3.963 8.418 3.12 20.613 14.916 25.422 22.497 9.789 15.432 16.611 48.48 14.835 66.816-.363 3.765-1.617 13.101-1.266 16.869.321 3.441 7.851 11.067 8.694 14.421 3.48 13.836-5.166 50.745-5.166 50.745h17.475c.003 0 34.218-81.612 6.48-150.972z" fill="#2a232b"/><path d="M464.814 93.489C408.534-9.342 305.937-1.893 300-1.365c-5.937-.528-108.531-7.977-164.814 94.854-43.476 79.434-10.476 170.922-6.465 181.347.228.591 4.728.114 4.728.114-.018-.045-.312-1.176-.498-1.65-3.627-9.36-36.567-99.54 6.183-177.648C195.333-7.026 298.785 3.021 299.82 3.138l.18-1.626.18 1.626c1.035-.117 104.487-10.164 160.689 92.511 43.689 79.83 8.319 172.269 5.988 178.149-.063.165-.321 1.125-.333 1.149 0 0 4.518.507 4.725-.033 3.873-10.032 37.152-101.787-6.435-181.425z"/><defs id="SvgjsDefs1001"><radialGradient id="SvgjsRadialGradient2886" cx="100" cy="114" r="41" gradientUnits="userSpaceOnUse" class="svga-on-canvas-facehighlight-gradient-single-0"><stop id="SvgjsStop2887" stop-opacity=".5" stop-color="#855844" offset="0"/><stop id="SvgjsStop2888" stop-opacity="0" stop-color="#764630" offset=".9"/></radialGradient><radialGradient id="SvgjsRadialGradient2890" cx="100" cy="54" r="37" gradientUnits="userSpaceOnUse" class="svga-on-canvas-facehighlight-gradient-single-1"><stop id="SvgjsStop2891" stop-opacity=".5" stop-color="#855844" offset="0"/><stop id="SvgjsStop2892" stop-opacity="0" stop-color="#764630" offset=".9"/></radialGradient><linearGradient id="SvgjsLinearGradient3072" x1="100" y1="170" x2="100" y2="122" gradientUnits="userSpaceOnUse" class="svga-on-canvas-chinshadow-gradient-single-0"><stop id="SvgjsStop3073" stop-opacity=".8" stop-color="#673620" offset="0"/><stop id="SvgjsStop3074" stop-color="#481c08" offset=".7"/></linearGradient><linearGradient id="SvgjsLinearGradient3111" x1="100" y1="142" x2="100" y2="139" gradientUnits="userSpaceOnUse" class="svga-on-canvas-mouth-gradient-single-0"><stop id="SvgjsStop3112" stop-color="#6e3e27" offset=".1"/><stop id="SvgjsStop3113" stop-color="#673620" offset="1"/></linearGradient><radialGradient id="SvgjsRadialGradient3381" cx="129.041" cy="83.945" r="15.117" gradientTransform="scale(-1 1) rotate(5.981 22.864 -1851.752)" gradientUnits="userSpaceOnUse" class="svga-on-canvas-eyesback-gradient-left-0"><stop id="SvgjsStop3382" stop-color="#fff" offset="0"/><stop id="SvgjsStop3383" stop-color="#fcfdfd" offset=".315"/><stop id="SvgjsStop3384" stop-color="#f4f7f8" offset=".504"/><stop id="SvgjsStop3385" stop-color="#e5ecef" offset=".66"/><stop id="SvgjsStop3386" stop-color="#d8e2e7" offset=".76"/></radialGradient><radialGradient id="SvgjsRadialGradient3388" cx="128.643" cy="83.986" r="15.116" gradientTransform="rotate(5.981 122.87 62.427)" gradientUnits="userSpaceOnUse" class="svga-on-canvas-eyesback-gradient-right-0"><stop id="SvgjsStop3389" stop-color="#fff" offset="0"/><stop id="SvgjsStop3390" stop-color="#fcfdfd" offset=".316"/><stop id="SvgjsStop3391" stop-color="#f4f7f8" offset=".505"/><stop id="SvgjsStop3392" stop-color="#e5ecef" offset=".661"/><stop id="SvgjsStop3393" stop-color="#d8e2e7" offset=".76"/></radialGradient><radialGradient id="SvgjsRadialGradient3395" cx="129.041" cy="83.945" r="15.117" gradientTransform="scale(-1 1) rotate(5.981 22.864 -1851.752)" gradientUnits="userSpaceOnUse" class="svga-on-canvas-eyesfront-gradient-left-0"><stop id="SvgjsStop3396" stop-color="#fff" offset="0"/><stop id="SvgjsStop3397" stop-color="#fcfdfd" offset=".316"/><stop id="SvgjsStop3398" stop-color="#f4f7f8" offset=".505"/><stop id="SvgjsStop3399" stop-color="#e5ecef" offset=".661"/><stop id="SvgjsStop3400" stop-color="#d8e2e7" offset=".76"/></radialGradient><radialGradient id="SvgjsRadialGradient3404" cx="121.986" cy="82.496" fx="133.239" fy="82.527" r="16.003" gradientTransform="matrix(.9998 .0208 .0166 -.7998 -45.32 145.94)" gradientUnits="userSpaceOnUse" class="svga-on-canvas-eyesfront-gradient-left-3"><stop id="SvgjsStop3405" stop-color="#673620" offset="0"/><stop id="SvgjsStop3406" stop-opacity=".3" stop-color="#673620" offset=".7"/><stop id="SvgjsStop3407" stop-opacity="0" stop-color="#764630" offset="1"/></radialGradient><radialGradient id="SvgjsRadialGradient3409" cx="68.931" cy="105.995" r="29.524" gradientTransform="translate(-1.68 1.313) scale(1.0336)" gradientUnits="userSpaceOnUse" class="svga-on-canvas-eyesfront-gradient-left-4"><stop id="SvgjsStop3410" stop-opacity="0" offset=".95"/><stop id="SvgjsStop3411" stop-opacity=".2" offset="1"/></radialGradient><radialGradient id="SvgjsRadialGradient3415" cx="128.643" cy="83.986" r="15.116" gradientTransform="rotate(5.981 122.87 62.427)" gradientUnits="userSpaceOnUse" class="svga-on-canvas-eyesfront-gradient-right-0"><stop id="SvgjsStop3416" stop-color="#fff" offset="0"/><stop id="SvgjsStop3417" stop-color="#fcfdfd" offset=".316"/><stop id="SvgjsStop3418" stop-color="#f4f7f8" offset=".505"/><stop id="SvgjsStop3419" stop-color="#e5ecef" offset=".661"/><stop id="SvgjsStop3420" stop-color="#d8e2e7" offset=".76"/></radialGradient><radialGradient id="SvgjsRadialGradient3424" cx="121.587" cy="82.496" fx="132.839" fy="82.527" r="16.003" gradientTransform="matrix(-.9998 .0208 -.0166 -.7998 244.52 145.948)" gradientUnits="userSpaceOnUse" class="svga-on-canvas-eyesfront-gradient-right-3"><stop id="SvgjsStop3425" stop-color="#673620" offset="0"/><stop id="SvgjsStop3426" stop-opacity=".3" stop-color="#673620" offset=".7"/><stop id="SvgjsStop3427" stop-opacity="0" stop-color="#764630" offset="1"/></radialGradient><radialGradient id="SvgjsRadialGradient3429" cx="69.316" cy="105.995" r="29.524" gradientTransform="matrix(-1.0336 0 0 1.0336 201.68 1.313)" gradientUnits="userSpaceOnUse" class="svga-on-canvas-eyesfront-gradient-right-4"><stop id="SvgjsStop3430" stop-opacity="0" offset=".95"/><stop id="SvgjsStop3431" stop-opacity=".2" offset="1"/></radialGradient><radialGradient id="SvgjsRadialGradient3506" cx="-568.659" cy="-521.042" r="59.751" gradientTransform="matrix(.096 -.0248 .0245 .0961 141.281 119.99)" gradientUnits="userSpaceOnUse" class="svga-on-canvas-eyesiris-gradient-left-1"><stop id="SvgjsStop3507" stop-color="#fff" offset="0"/><stop id="SvgjsStop3508" stop-opacity="0" stop-color="#fff" offset="1"/></radialGradient><radialGradient id="SvgjsRadialGradient3510" cx="-582.838" cy="-519.099" r="59.745" gradientTransform="matrix(.0991 .00089 -.0011 .0991 131.113 135.986)" gradientUnits="userSpaceOnUse" class="svga-on-canvas-eyesiris-gradient-left-2"><stop id="SvgjsStop3511" stop-color="#fff" offset="0"/><stop id="SvgjsStop3512" stop-opacity="0" stop-color="#fff" offset="1"/></radialGradient><linearGradient id="SvgjsLinearGradient3516" x1="122.67" y1="88.268" x2="123.606" y2="87.152" gradientTransform="translate(-52)" gradientUnits="userSpaceOnUse" class="svga-on-canvas-eyesiris-gradient-left-5"><stop id="SvgjsStop3517" stop-color="#fff" offset="0"/><stop id="SvgjsStop3518" stop-opacity="0" stop-color="#fff" offset="1"/></linearGradient><linearGradient id="SvgjsLinearGradient3520" x1="127.212" y1="82.296" x2="126.463" y2="83.189" gradientTransform="translate(-52)" gradientUnits="userSpaceOnUse" class="svga-on-canvas-eyesiris-gradient-left-6"><stop id="SvgjsStop3521" stop-color="#fff" offset="0"/><stop id="SvgjsStop3522" stop-opacity="0" stop-color="#fff" offset="1"/></linearGradient><linearGradient id="SvgjsLinearGradient3524" x1="129.636" y1="79.822" x2="127.91" y2="81.879" gradientTransform="translate(-52)" gradientUnits="userSpaceOnUse" class="svga-on-canvas-eyesiris-gradient-left-7"><stop id="SvgjsStop3525" stop-color="#fff" offset="0"/><stop id="SvgjsStop3526" stop-opacity="0" stop-color="#fff" offset="1"/></linearGradient><radialGradient id="SvgjsRadialGradient3529" cx="-568.654" cy="-521.042" r="59.752" gradientTransform="matrix(.096 -.0248 .0245 .0961 193.28 119.99)" gradientUnits="userSpaceOnUse" class="svga-on-canvas-eyesiris-gradient-right-1"><stop id="SvgjsStop3530" stop-color="#fff" offset="0"/><stop id="SvgjsStop3531" stop-opacity="0" stop-color="#fff" offset="1"/></radialGradient><radialGradient id="SvgjsRadialGradient3533" cx="-582.833" cy="-519.102" r="59.747" gradientTransform="matrix(.0991 .00089 -.0011 .0991 183.113 135.986)" gradientUnits="userSpaceOnUse" class="svga-on-canvas-eyesiris-gradient-right-2"><stop id="SvgjsStop3534" stop-color="#fff" offset="0"/><stop id="SvgjsStop3535" stop-opacity="0" stop-color="#fff" offset="1"/></radialGradient><linearGradient id="SvgjsLinearGradient3539" x1="122.67" y1="88.268" x2="123.606" y2="87.152" gradientUnits="userSpaceOnUse" class="svga-on-canvas-eyesiris-gradient-right-5"><stop id="SvgjsStop3540" stop-color="#fff" offset="0"/><stop id="SvgjsStop3541" stop-opacity="0" stop-color="#fff" offset="1"/></linearGradient><linearGradient id="SvgjsLinearGradient3543" x1="127.212" y1="82.296" x2="126.463" y2="83.189" gradientUnits="userSpaceOnUse" class="svga-on-canvas-eyesiris-gradient-right-6"><stop id="SvgjsStop3544" stop-color="#fff" offset="0"/><stop id="SvgjsStop3545" stop-opacity="0" stop-color="#fff" offset="1"/></linearGradient><linearGradient id="SvgjsLinearGradient3547" x1="129.636" y1="79.822" x2="127.91" y2="81.879" gradientUnits="userSpaceOnUse" class="svga-on-canvas-eyesiris-gradient-right-7"><stop id="SvgjsStop3548" stop-color="#fff" offset="0"/><stop id="SvgjsStop3549" stop-opacity="0" stop-color="#fff" offset="1"/></linearGradient></defs></svg>