<svg width="512" height="512" xmlns="http://www.w3.org/2000/svg">

 <g>
  <title>background</title>
  <rect fill="none" id="canvas_background" height="514" width="514" y="-1" x="-1"/>
 </g>
 <g>
  <title>Layer 1</title>
  <path id="Background" fill="#455abd" d="m257,1c140.016,0 253.574,114.645 253.574,256s-113.558,256 -253.574,256c-140.016,0 -253.574,-114.645 -253.574,-256s113.558,-256 253.574,-256z"/>
  <path id="svg_1" fill="#757575" d="m349.989,363.774c0,0.651 0.32,1.307 0.32,1.958c0,18.287 -45.282,32.981 -101.237,32.981c-55.626,0 -100.907,-14.694 -100.907,-32.981c0,-0.651 0,-1.307 0,-1.958c0,-0.327 0,-0.979 0,-1.634c0,-18.282 45.281,-32.978 100.907,-32.978c55.955,0 101.237,14.695 101.237,32.978c0.001,0.656 -0.32,1.307 -0.32,1.634z"/>
  <path id="svg_2" fill="#696969" d="m349.989,363.774c0,0.651 0.32,1.307 0.32,1.958c0,18.287 -45.282,32.981 -101.237,32.981c-2.263,0 -4.852,0 -7.115,0l0,-69.551c2.263,0 4.852,0 7.115,0c55.955,0 101.237,14.695 101.237,32.978c0.001,0.656 -0.32,1.307 -0.32,1.634z"/>
  <path id="svg_3" fill="#757575" d="m241.958,329.163c2.263,0 4.852,0 7.115,0c54.015,0 98.003,13.712 100.917,31.348c-2.913,17.304 -46.901,31.02 -100.917,31.02c-2.263,0 -4.852,0 -7.115,0l0,-62.368z"/>
  <path id="svg_4" fill="#8D8D8D" d="m249.073,325.572c55.736,0 100.917,14.766 100.917,32.977c0,18.216 -45.181,32.981 -100.917,32.981c-55.73,0 -100.907,-14.766 -100.907,-32.981c0,-18.211 45.176,-32.977 100.907,-32.977z"/>
  <path id="svg_5" fill="#7F7F7F" d="m249.073,325.572c55.955,0 101.237,14.694 101.237,32.977c0,18.287 -45.282,32.981 -101.237,32.981c-2.263,0 -4.852,0 -7.115,0l0,-65.958c2.263,0 4.852,0 7.115,0z"/>
  <polygon id="svg_6" points="212.5260009765625,262.22698974609375 285.9490051269531,262.22698974609375 285.9490051269531,350.3869934082031 212.5260009765625,350.3869934082031 " fill="#CCCCCC"/>
  <polygon id="svg_7" points="285.9490051269531,309.57000732421875 285.9490051269531,350.3869934082031 241.95799255371094,350.3869934082031 241.95799255371094,309.57000732421875 " fill="#B8B8B8"/>
  <polygon id="svg_8" points="218.02200317382812,267.7760009765625 281.74200439453125,267.7760009765625 281.74200439453125,344.8370056152344 218.02200317382812,344.8370056152344 " fill="#B8B8B8"/>
  <polygon id="svg_9" points="281.74200439453125,309.57000732421875 281.74200439453125,344.8370056152344 241.95799255371094,344.8370056152344 241.95799255371094,309.57000732421875 " fill="#A6A6A6"/>
  <path id="svg_10" fill="#A9ABAE" d="m66.009,55.86l367.746,0c3.56,0 6.797,2.936 6.797,6.856l0,239.998c0,3.92 -3.237,6.856 -6.797,6.856l-367.746,0c-3.553,0 -6.466,-2.937 -6.466,-6.856l0,-239.998c-0.001,-3.92 2.913,-6.856 6.466,-6.856z"/>
  <path id="svg_11" fill="#4E5A62" d="m80.565,65.98l344.781,0c2.913,0 5.177,2.285 5.177,5.222l0,217.474c0,2.936 -2.264,5.221 -5.177,5.221l-350.923,0c-2.914,0 -5.177,-2.285 -5.177,-5.221l0,-211.265c0.001,-6.533 5.177,-11.431 11.319,-11.431z"/>
  <path id="svg_12" fill="#CCCCCC" d="m250.047,295.53c2.855,0 5.176,2.339 5.176,5.227c0,2.883 -2.321,5.222 -5.176,5.222c-2.86,0 -5.177,-2.339 -5.177,-5.222c0,-2.888 2.317,-5.227 5.177,-5.227z"/>
  <path id="svg_13" fill="#B3B3B3" d="m250.047,297.16c1.966,0 3.553,1.612 3.553,3.597c0,1.979 -1.587,3.587 -3.553,3.587c-1.965,0 -3.563,-1.607 -3.563,-3.587c0,-1.985 1.598,-3.597 3.563,-3.597z"/>
  <path id="svg_14" fill="#C2C3C5" d="m90.593,75.776l18.434,0l0,18.615l-18.434,0l0,-18.615zm21.996,170.45l18.434,0l0,18.609l-18.434,0l0,-18.609zm-21.996,0l18.434,0l0,18.609l-18.434,0l0,-18.609zm21.996,-21.228l18.434,0l0,18.614l-18.434,0l0,-18.614zm-21.996,0l18.434,0l0,18.614l-18.434,0l0,-18.614zm21.996,-21.551l18.434,0l0,18.942l-18.434,0l0,-18.942zm-21.996,0l18.434,0l0,18.942l-18.434,0l0,-18.942zm21.996,-21.223l18.434,0l0,18.61l-18.434,0l0,-18.61zm-21.996,0l18.434,0l0,18.61l-18.434,0l0,-18.61zm21.996,-21.224l18.434,0l0,18.61l-18.434,0l0,-18.61zm-21.996,0l18.434,0l0,18.61l-18.434,0l0,-18.61zm21.996,-21.223l18.434,0l0,18.61l-18.434,0l0,-18.61zm-21.996,0l18.434,0l0,18.61l-18.434,0l0,-18.61zm21.996,-21.55l18.434,0l0,18.61l-18.434,0l0,-18.61zm-21.996,0l18.434,0l0,18.61l-18.434,0l0,-18.61zm21.996,-21.227l18.434,0l0,18.615l-18.434,0l0,-18.615zm-21.996,0l18.434,0l0,18.615l-18.434,0l0,-18.615zm21.996,-21.224l18.434,0l0,18.615l-18.434,0l0,-18.615z"/>
  <rect id="svg_15" y="285.407" x="358.074" width="54.984" height="39.509" fill="#CBD0D4"/>
  <rect id="svg_16" y="290.306" x="362.926" width="45.457" height="29.902" fill="#f0f1f4"/>
  <rect id="svg_17" y="271.367" x="421.469" width="54.979" height="39.509" fill="#CBD0D4"/>
  <rect id="svg_18" y="276.266" x="426.315" width="45.462" height="29.903" fill="#2d4a99"/>
  <rect id="svg_19" y="201.817" x="344.167" width="124.847" height="89.794" fill="#E6E7E8"/>
  <rect id="svg_20" y="212.592" x="354.841" width="103.175" height="67.916" fill="#455abd"/>
  <path id="svg_21" fill="#f0f1f4" d="m228.051,6.549l-106.083,0c-9.059,0 -16.174,7.184 -16.174,16.001l0,62.043c0,9.141 7.115,16.325 16.174,16.325l81.503,0l23.61,30.692l0,-30.691l0.97,0c8.734,0 16.169,-7.184 16.169,-16.325l0,-62.043c0.001,-8.818 -7.435,-16.002 -16.169,-16.002z"/>
  <path id="svg_24" fill="#373435" d="m135.492939,65.823l-4.92099,0l0,-31.627l4.92099,0l0,13.554l5.591989,0l0,-13.554l5.01099,0l0,31.627l-5.01099,0l0,-13.554l-5.591989,0l0,13.554z"/>
  <path id="svg_25" fill="#373435" d="m148.244914,34.196l15.21097,0l0,4.518l-5.14499,0l0,27.109l-4.92099,0l0,-27.109l-5.14499,0l0,-4.518z"/>
  <path id="svg_26" fill="#373435" d="m176.029858,56.651l3.354993,-22.455l6.844986,0l0,31.627l-4.652991,0l0,-22.681l-3.399993,22.681l-4.652991,0l-3.668993,-22.365l0,22.365l-4.294991,0l0,-31.627l6.844986,0l3.624993,22.455z"/>
  <path id="svg_27" fill="#373435" d="m189.811831,34.196l4.92099,0l0,27.109l8.097984,0l0,4.518l-13.018974,0l0,-31.627z"/>
  <path id="svg_28" fill="#373435" d="m211.600787,33.834c4.78699,0 7.247986,2.892 7.247986,7.952l0,0.994l-4.652991,0l0,-1.31c0,-2.259 -0.894998,-3.118 -2.460995,-3.118s-2.459995,0.858 -2.459995,3.118c0,6.506 9.618981,7.726 9.618981,16.762c0,5.06 -2.504995,7.952 -7.336985,7.952c-4.83199,0 -7.336985,-2.892 -7.336985,-7.952l0,-1.943l4.652991,0l0,2.259c0,2.259 0.983998,3.073 2.549995,3.073s2.549995,-0.813 2.549995,-3.073c0,-6.506 -9.618981,-7.726 -9.618981,-16.762c0,-5.06 2.460995,-7.952 7.246986,-7.952z"/>
  <path id="svg_29" fill="#E6E7E8" d="m271.068,236.428c0.646,1.634 0.97,2.94 1.295,4.571l7.116,0l0.324,8.817l-7.116,0.328c-0.324,1.63 -0.649,3.265 -1.294,4.898l6.146,3.591l-4.532,7.835l-5.821,-3.592c-0.969,1.307 -2.265,2.285 -3.558,3.592l3.558,5.877l-7.761,4.571l-3.237,-5.877c-1.614,0.654 -3.233,0.979 -4.852,1.306l0,6.532l-9.054,0l0,-6.204c-1.614,-0.328 -3.233,-0.655 -4.852,-1.307l-3.233,5.55l-7.76,-4.571l3.233,-5.55c-1.294,-0.979 -2.264,-1.961 -3.558,-3.268l-5.176,3.268l-4.528,-7.839l5.177,-3.264c-0.649,-1.635 -0.974,-3.265 -1.298,-4.898l-6.142,0l0,-8.817l6.142,-0.323c0.324,-1.634 0.649,-3.592 1.298,-5.226l-5.501,-3.264l4.527,-7.839l5.826,3.268c0.969,-1.311 2.263,-2.285 3.553,-3.268l-3.553,-5.877l8.084,-4.57l3.233,5.877c1.614,-0.328 2.914,-0.656 4.528,-0.979l0,-6.86l9.054,0l0,6.86c1.619,0.323 2.913,0.979 4.532,1.306l3.558,-6.205l7.761,4.57l-3.558,6.205c0.97,0.979 1.943,1.958 2.913,3.269l6.146,-3.924l4.527,7.839l-6.147,3.592z"/>
  <path id="svg_30" fill="#D2D3D5" d="m258.544,238.833c3.852,6.518 1.742,14.952 -4.712,18.844c-6.453,3.889 -14.81,1.759 -18.661,-4.757c-3.856,-6.514 -1.746,-14.952 4.708,-18.84c6.456,-3.892 14.809,-1.762 18.665,4.753z"/>
  <path id="svg_31" fill="#BDBFC1" d="m255.969,240.384c3.006,5.084 1.36,11.661 -3.671,14.694c-5.032,3.033 -11.552,1.373 -14.552,-3.707c-3.009,-5.08 -1.364,-11.661 3.668,-14.69c5.036,-3.038 11.55,-1.378 14.555,3.703z"/>
  <path id="svg_32" fill="#E6E7E8" d="m310.529,225.98c0.323,0.651 0.644,1.63 0.644,2.285l3.883,0l0,4.571l-3.558,0c-0.325,0.979 -0.325,1.63 -0.646,2.613l3.234,1.63l-2.589,4.247l-2.912,-1.958c-0.32,0.651 -0.97,1.307 -1.615,1.958l1.615,2.94l-3.879,2.286l-1.619,-2.941c-0.969,0.328 -1.618,0.655 -2.587,0.655l0,3.265l-4.528,0l0,-3.265c-0.645,0 -1.618,-0.327 -2.588,-0.655l-1.295,2.941l-4.202,-2.286l1.615,-2.94c-0.646,-0.327 -1.29,-0.979 -1.615,-1.634l-2.588,1.634l-2.588,-3.919l2.913,-1.63c-0.325,-0.655 -0.65,-1.634 -0.97,-2.613l-2.913,0l0,-4.571l2.913,0c0.319,-0.983 0.645,-1.634 0.97,-2.613l-2.913,-1.634l2.263,-3.919l2.913,1.634c0.646,-0.651 1.295,-1.306 1.939,-1.962l-1.939,-2.936l4.202,-2.286l1.619,3.264c0.646,-0.328 1.619,-0.651 2.264,-0.651l0,-3.592l4.528,0l0,3.592c0.969,0.324 1.618,0.324 2.264,0.651l1.942,-3.264l3.879,2.286l-1.615,3.264c0.325,0.655 0.97,0.983 1.295,1.634l3.232,-1.962l2.264,3.924l-3.232,1.957z"/>
  <path id="svg_33" fill="#D2D3D5" d="m304.277,227.167c1.961,3.317 0.891,7.608 -2.396,9.588c-3.281,1.979 -7.532,0.895 -9.493,-2.418c-1.961,-3.317 -0.886,-7.604 2.396,-9.589c3.286,-1.974 7.537,-0.894 9.493,2.419z"/>
  <path id="svg_34" fill="#BDBFC1" d="m302.971,227.96c1.53,2.582 0.692,5.931 -1.869,7.472c-2.558,1.545 -5.873,0.7 -7.404,-1.886c-1.528,-2.583 -0.689,-5.926 1.868,-7.472c2.561,-1.546 5.877,-0.7 7.405,1.886z"/>
  <path id="svg_35" fill="#E6E7E8" d="m237.105,164.592c0.649,1.962 0.974,3.592 1.299,5.549l9.054,-0.328l0,11.107l-8.734,0.324c-0.32,1.962 -0.645,3.919 -1.294,5.876l7.44,4.571l-5.501,9.469l-7.436,-4.243c-0.969,1.63 -2.587,2.941 -3.882,4.243l4.202,7.184l-9.699,5.554l-3.882,-6.856c-1.939,0.651 -3.879,1.302 -5.822,1.63l0,7.839l-10.997,0l0,-7.511c-2.264,-0.328 -4.203,-0.979 -6.142,-1.63l-3.887,6.528l-9.38,-5.554l3.563,-6.528c-1.298,-1.307 -2.588,-2.613 -3.882,-3.92l-6.471,3.592l-5.821,-9.468l6.47,-3.916c-0.649,-1.962 -1.293,-3.924 -1.618,-5.881l-7.436,0l-0.325,-11.099l7.761,0c0.325,-2.285 0.969,-4.571 1.618,-6.533l-6.47,-3.919l5.496,-9.796l6.796,3.919c1.293,-1.307 2.583,-2.936 4.206,-3.919l-3.887,-7.184l9.38,-5.549l4.207,7.184c1.943,-0.651 3.882,-0.979 5.821,-1.307l0,-8.49l10.997,0l0,8.818c1.943,0.328 3.558,0.65 5.497,1.302l4.207,-7.507l9.699,5.549l-4.527,7.839c1.298,0.979 2.588,2.285 3.563,3.592l7.76,-4.575l5.497,9.469l-7.44,4.575z"/>
  <path id="svg_36" fill="#D2D3D5" d="m221.607,167.418c4.725,7.985 2.136,18.322 -5.769,23.092c-7.914,4.77 -18.154,2.157 -22.878,-5.828c-4.725,-7.985 -2.136,-18.322 5.774,-23.092c7.909,-4.77 18.148,-2.157 22.873,5.828z"/>
  <path id="svg_37" fill="#BDBFC1" d="m218.453,169.318c3.686,6.227 1.667,14.288 -4.501,18.008c-6.168,3.72 -14.151,1.683 -17.837,-4.544s-1.667,-14.288 4.501,-18.008c6.168,-3.72 14.156,-1.683 17.837,4.544z"/>
  <rect id="svg_38" y="22.878" x="270.424" width="195.676" height="148.897" fill="#E6E7E8"/>
  <polygon id="svg_39" points="270.42401123046875,22.878000259399414 466.1000061035156,22.878000259399414 466.1000061035156,42.79499816894531 270.42401123046875,42.79499816894531 " fill="#0D3652"/>
  <polygon id="svg_40" points="270.42401123046875,54.54899978637695 466.1000061035156,54.54899978637695 466.1000061035156,42.79499816894531 270.42401123046875,42.79499816894531 " fill="#699392"/>
  <rect id="svg_41" y="125.083" x="285.949" width="76.875" height="8.579" fill="#607D8B"/>
  <rect id="svg_42" y="125.083" x="368.098" width="27.216" height="8.579" fill="#607D8B"/>
  <rect id="svg_43" y="125.083" x="401.091" width="49.62" height="8.579" fill="#607D8B"/>
  <rect id="svg_44" y="137.165" x="363.896" width="76.875" height="8.579" fill="#607D8B"/>
  <rect id="svg_45" y="137.165" x="331.551" width="27.211" height="8.579" fill="#607D8B"/>
  <rect id="svg_46" y="137.165" x="276.245" width="49.62" height="8.579" fill="#607D8B"/>
  <rect id="svg_47" y="148.263" x="381.359" width="76.879" height="8.583" fill="#607D8B"/>
  <rect id="svg_48" y="148.263" x="349.015" width="27.216" height="8.583" fill="#607D8B"/>
  <rect id="svg_49" y="148.263" x="293.709" width="49.62" height="8.583" fill="#607D8B"/>
  <path id="svg_50" fill="#F48884" d="m284.655,45.08c1.96,0 3.558,1.612 3.558,3.597s-1.598,3.587 -3.558,3.587c-1.966,0 -3.558,-1.603 -3.558,-3.587s1.592,-3.597 3.558,-3.597z"/>
  <path id="svg_51" fill="#5CC6D0" d="m294.354,45.08c1.966,0 3.558,1.612 3.558,3.597s-1.592,3.587 -3.558,3.587c-1.961,0 -3.558,-1.603 -3.558,-3.587s1.598,-3.597 3.558,-3.597z"/>
  <path id="svg_52" fill="#A7C4D2" d="m303.413,45.08c1.965,0 3.558,1.612 3.558,3.597s-1.593,3.587 -3.558,3.587s-3.558,-1.603 -3.558,-3.587s1.593,-3.597 3.558,-3.597z"/>
  <polygon id="svg_53" points="317.6449890136719,51.941001892089844 463.18798828125,51.941001892089844 463.18798828125,45.736000061035156 317.6449890136719,45.736000061035156 " fill="#537473"/>
  <rect id="svg_54" y="61.409" x="279.804" width="177.242" height="56.163" fill="#7478fc"/>
  <path id="svg_55" fill="#4E5A62" d="m476.448,266.141l-2.264,0l0,-64.324c0,-2.941 -2.264,-5.226 -5.171,-5.226l-23.291,0l0,-19.593l20.378,0c2.914,0 5.178,-2.286 5.178,-5.222l0,-148.898c0,-2.936 -2.264,-5.222 -5.178,-5.222l-195.676,0c-2.913,0 -5.176,2.286 -5.176,5.222l0,27.755l-15.85,0l0,-28.082c0,-11.754 -9.704,-21.551 -21.347,-21.551l-106.083,0c-11.967,0 -21.347,9.797 -21.347,21.551l0,28.083l-34.612,0c-6.466,0 -11.643,5.549 -11.643,12.083l0,239.998c0,6.856 5.176,12.082 11.643,12.082l141.345,0l0,8.49c-14.556,1.958 -30.406,5.55 -43.342,11.755c-9.055,4.242 -21.021,11.754 -21.021,23.508c0,0.655 0,1.307 0,1.962c0,0.651 0,0.979 0,1.63c0,0.655 0,1.307 0,1.634c0,0.651 0,1.307 0,1.958c0,14.694 19.082,23.513 30.725,27.428c21.022,7.512 45.931,10.124 68.243,10.78c2.263,0 4.852,0 7.115,0c23.935,0 50.458,-2.614 73.099,-9.798c11.967,-4.246 33.313,-13.06 33.313,-28.41c0,-0.651 0,-1.307 -0.324,-1.958c0.324,-0.327 0.324,-0.979 0.324,-1.634c0,-0.65 0,-0.979 -0.324,-1.63c0.324,-0.655 0.324,-1.307 0.324,-1.962c0,-11.754 -11.967,-19.266 -21.346,-23.508c-12.937,-6.205 -28.787,-9.797 -43.018,-11.755l0,-8.49l61.775,0l0,10.12c0,2.941 2.588,5.226 5.178,5.226l54.984,0c2.909,0 5.496,-2.284 5.496,-5.226l0,-9.792c0.646,0.651 1.938,1.302 2.914,1.302l54.979,0c2.914,0 5.177,-2.608 5.177,-5.55l0,-39.509c0,-2.942 -2.263,-5.227 -5.177,-5.227zm0,44.735l-54.979,0l0,-1.306l-8.41,0l0,15.346l-54.984,0l0,-15.346l-72.125,0l0,18.287c37.517,4.57 64.36,16.651 64.36,30.691c0,0.655 -0.32,1.307 -0.32,1.962c0,0.323 0.32,0.979 0.32,1.63c0,0.655 -0.32,1.307 -0.32,1.634c0,0.651 0.32,1.307 0.32,1.958c0,18.287 -45.282,32.981 -101.237,32.981c-2.263,0 -4.852,0 -7.115,0c-52.397,-1.306 -93.792,-15.673 -93.792,-32.981c0,-0.651 0,-1.307 0,-1.958c0,-0.327 0,-0.979 0,-1.634c0,-0.65 0,-1.307 0,-1.63c0,-0.655 0,-1.307 0,-1.962c0,-14.04 26.844,-26.121 64.36,-30.691l0,-18.287l-146.517,0c-3.553,0 -6.466,-2.937 -6.466,-6.856l0,-239.998c0,-3.92 2.914,-6.856 6.466,-6.856l39.785,0l0,-33.31c0,-8.818 7.115,-16.001 16.174,-16.001l106.083,0c8.734,0 16.169,7.184 16.169,16.001l0,33.31l26.203,0l0,-1.311l0,-11.754l0,-19.917l195.677,0l0,19.917l0,11.754l0,117.227l-25.548,0l0,30.041l28.462,0l0,69.55l7.435,0l0,39.509l-0.001,0z"/>
  <path id="svg_56" fill="#E6E6E6" d="m70.537,414.388c31.049,0 62.424,0 93.475,0c31.05,0 62.425,0 93.471,0c31.375,0 62.425,0 93.799,0c31.046,0 62.422,0 93.472,0c5.177,7.184 10.348,14.039 15.525,21.223c5.497,7.184 10.349,14.04 15.523,21.224c5.178,6.859 10.675,14.043 15.847,21.227c5.176,6.856 10.353,14.04 15.525,21.224c-41.72,0 -83.442,0 -125.167,0c-41.724,0 -83.446,0 -125.17,0c-41.399,0 -83.123,0 -124.846,0c-41.723,0 -83.447,0 -124.845,0c5.176,-7.184 10.353,-14.367 15.845,-21.224c5.176,-7.184 10.353,-14.367 15.854,-21.227c5.172,-7.184 10.668,-14.367 15.846,-21.224c5.177,-7.184 10.674,-14.04 15.846,-21.223z"/>
  <path id="svg_57" fill="#CCCCCC" d="m8.761,497.978l496.475,0c1.618,0 2.589,2.285 2.589,4.897l0,0c0,2.614 -0.971,4.898 -2.589,4.898l-496.475,0c-1.614,0 -2.583,-2.284 -2.583,-4.898l0,0c-0.001,-2.612 0.968,-4.897 2.583,-4.897z"/>
  <path id="svg_58" fill="#B3B3B3" d="m8.761,498.633c-1.614,0 -1.939,3.264 -1.939,4.242s0.325,4.248 1.939,4.248l496.475,0c1.618,0 2.264,-3.27 2.264,-4.248s-0.646,-4.242 -2.264,-4.242l-496.475,0z"/>
  <path id="svg_59" fill="#CFCFCF" d="m250.371,414.388l7.112,0c31.375,0 62.425,0 93.799,0c31.046,0 62.422,0 93.472,0c5.177,7.184 10.348,14.039 15.525,21.223c5.497,7.184 10.349,14.04 15.523,21.224c5.178,6.859 10.675,14.043 15.847,21.227c5.176,6.856 10.353,14.04 15.525,21.224c-41.72,0 -83.442,0 -125.167,0c-41.724,0 -83.446,0 -125.17,0l-6.466,0l0,-84.898z"/>
  <path id="svg_60" fill="#CCCCCC" d="m44.662,477.405c23.936,0 47.87,0 72.129,0c-1.618,2.94 -2.914,5.878 -4.203,8.817c-24.584,0 -49.167,-0.327 -73.743,-0.327c1.615,-2.612 3.879,-5.549 5.817,-8.49z"/>
  <path id="svg_61" fill="#CCCCCC" d="m121.644,477.405c7.76,0 15.521,0 23.285,0.328c-1.294,2.612 -2.264,5.55 -3.233,8.489c-8.085,0 -16.174,0 -23.935,0c1.294,-2.939 2.589,-5.876 3.883,-8.817z"/>
  <path id="svg_62" fill="#CCCCCC" d="m148.812,477.733c7.76,0 15.525,0 22.965,0c-0.974,2.941 -1.619,5.877 -2.588,8.817c-7.765,0 -15.85,0 -23.61,-0.328c0.969,-2.939 1.938,-5.876 3.233,-8.489z"/>
  <path id="svg_63" fill="#CCCCCC" d="m175.654,477.733c7.765,0 15.525,0 23.286,0c-0.646,2.941 -1.615,5.877 -1.939,8.817c-8.085,0 -15.846,0 -23.934,0c0.648,-2.94 1.618,-5.875 2.587,-8.817z"/>
  <path id="svg_64" fill="#CCCCCC" d="m202.827,477.733c7.436,0 15.196,0.327 22.961,0.327c-0.325,2.937 -0.65,5.878 -1.294,8.813c-7.761,0 -15.85,-0.323 -23.61,-0.323c0.324,-2.94 0.969,-5.875 1.943,-8.817z"/>
  <path id="svg_65" fill="#CCCCCC" d="m229.67,478.061c7.76,0 15.525,0 23.286,0c-0.32,2.937 -0.645,5.878 -0.645,8.813c-8.09,0 -15.85,0 -23.935,0c0.324,-2.936 0.648,-5.877 1.294,-8.813z"/>
  <path id="svg_66" fill="#CCCCCC" d="m256.514,478.061c7.765,0 15.524,0 23.29,0.328c0,2.936 0,5.877 0,8.813c-7.766,0 -15.851,-0.328 -23.615,-0.328c-0.001,-2.936 0.325,-5.877 0.325,-8.813z"/>
  <path id="svg_67" fill="#CCCCCC" d="m283.682,478.389c7.765,0 15.524,0 23.289,0c0,2.936 0.325,5.877 0.646,8.813c-8.086,0 -15.846,0 -23.935,0c0,-2.936 0,-5.878 0,-8.813z"/>
  <path id="svg_68" fill="#CCCCCC" d="m310.529,478.389c7.76,0 15.523,0 23.284,0c0.325,2.936 0.97,6.2 1.62,9.141c-8.085,0 -16.171,-0.327 -23.936,-0.327c-0.324,-2.937 -0.644,-5.879 -0.968,-8.814z"/>
  <path id="svg_69" fill="#CCCCCC" d="m337.696,478.389c7.761,0.323 15.525,0.323 23.285,0.323c0.649,2.941 1.295,5.877 1.944,8.817c-8.085,0 -15.85,0 -23.935,0c-0.324,-2.94 -0.969,-5.876 -1.294,-9.14z"/>
  <path id="svg_70" fill="#CCCCCC" d="m364.54,478.712c7.765,0 15.524,0 23.289,0c0.97,2.941 1.939,5.877 2.909,9.146c-8.085,-0.329 -15.846,-0.329 -23.931,-0.329c-0.648,-2.94 -1.618,-5.876 -2.267,-8.817z"/>
  <path id="svg_71" fill="#CCCCCC" d="m391.388,478.712c24.255,0 48.188,0 72.125,0.328c1.618,2.94 3.232,5.877 4.851,8.818c-24.579,0 -49.163,0 -73.742,0c-1.296,-3.269 -2.265,-6.205 -3.234,-9.146z"/>
  <path id="svg_72" fill="#CCCCCC" d="m113.878,466.307c7.766,0 15.205,0 22.641,0c-1.619,2.937 -2.909,5.877 -4.527,8.814c-7.76,0 -15.525,0 -22.965,-0.329c1.619,-2.936 3.237,-5.549 4.851,-8.485z"/>
  <path id="svg_73" fill="#CCCCCC" d="m140.077,466.307c7.44,0 14.88,0 22.321,0c-1.299,2.937 -2.264,5.877 -3.562,8.814c-7.761,0 -15.521,0 -23.286,0c1.614,-2.937 3.237,-5.878 4.527,-8.814z"/>
  <path id="svg_74" fill="#CCCCCC" d="m166.275,466.307c7.439,0 14.88,0 22.32,0c-0.974,2.937 -1.943,5.877 -2.913,8.814c-7.765,0 -15.526,0 -23.286,0c1.291,-2.937 2.585,-5.878 3.879,-8.814z"/>
  <path id="svg_75" fill="#CCCCCC" d="m192.149,466.307c7.44,0.323 14.88,0.323 22.32,0.323c-0.649,2.941 -1.298,5.877 -2.263,8.818c-7.441,0 -15.205,0 -22.965,-0.327c0.969,-2.937 1.939,-5.878 2.908,-8.814z"/>
  <path id="svg_76" fill="#CCCCCC" d="m218.347,466.63c7.441,0 14.88,0 22.321,0c-0.649,2.941 -0.974,5.877 -1.619,8.818c-7.76,0 -15.2,0 -22.965,0c0.649,-2.941 1.294,-5.877 2.263,-8.818z"/>
  <path id="svg_77" fill="#CCCCCC" d="m244.221,466.63c7.441,0 14.881,0 22.321,0c0,3.269 -0.324,6.205 -0.649,9.146c-7.76,-0.327 -15.521,-0.327 -22.961,-0.327c0.323,-2.942 0.969,-5.878 1.289,-8.819z"/>
  <path id="svg_78" fill="#CCCCCC" d="m270.424,466.63c7.436,0.327 14.876,0.327 22.316,0.327c0,2.941 0,5.878 0,8.818c-7.766,0 -15.525,0 -22.966,0c0,-2.94 0.326,-5.877 0.65,-9.145z"/>
  <path id="svg_79" fill="#CCCCCC" d="m296.298,466.957c7.439,0 14.875,0 22.64,0c0,2.941 0.325,5.878 0.646,8.818c-7.761,0 -15.524,0 -23.285,0c-0.001,-2.94 -0.001,-5.877 -0.001,-8.818z"/>
  <path id="svg_80" fill="#CCCCCC" d="m322.496,466.957c7.436,0 14.877,0 22.316,0c0.324,3.265 0.969,6.205 1.294,9.143c-7.765,0 -15.201,0 -22.965,-0.324c-0.325,-2.941 -0.645,-5.878 -0.645,-8.819z"/>
  <path id="svg_81" fill="#CCCCCC" d="m348.369,466.957c7.441,0.329 15.201,0.329 22.316,0.329c0.971,2.936 1.619,5.876 2.264,8.813c-7.76,0 -15.2,0 -22.96,0c-0.65,-2.937 -0.974,-5.877 -1.62,-9.142z"/>
  <path id="svg_82" fill="#CCCCCC" d="m374.567,467.286c7.44,0 14.876,0 22.317,0c0.969,2.936 1.943,5.876 2.912,8.813c-7.766,0 -15.2,0 -22.966,0c-0.968,-2.937 -1.617,-5.877 -2.263,-8.813z"/>
  <path id="svg_83" fill="#CCCCCC" d="m400.442,467.286c19.082,0 38.165,0 57.248,0c1.294,2.936 2.912,6.204 4.526,9.141c-19.727,0 -39.134,0 -58.542,-0.327c-1.288,-2.938 -2.263,-5.878 -3.232,-8.814z"/>
  <path id="svg_84" fill="#CCCCCC" d="m53.397,465.979c19.083,0 38.166,0 57.249,0.328c-1.943,2.937 -3.558,5.55 -5.498,8.485c-19.407,0 -39.139,0 -58.542,0c2.263,-2.936 4.528,-5.876 6.791,-8.813z"/>
  <path id="svg_85" fill="#CCCCCC" d="m95.445,454.876c7.116,0 14.231,0 21.672,0c-1.619,2.94 -3.563,5.878 -5.177,8.817c-7.439,0 -14.88,0 -22.32,0c1.943,-2.939 3.885,-5.877 5.825,-8.817z"/>
  <path id="svg_86" fill="#CCCCCC" d="m120.35,454.876c7.436,0 14.551,0 21.667,0c-1.291,2.94 -2.909,5.878 -4.203,8.817c-7.439,0 -14.88,0 -22.315,0c1.618,-2.939 3.232,-5.877 4.851,-8.817z"/>
  <path id="svg_87" fill="#CCCCCC" d="m145.578,454.876c7.116,0 14.556,0.328 21.672,0.328c-1.298,2.936 -2.269,5.55 -3.563,8.489c-7.439,0 -14.875,0 -22.315,0c1.293,-2.939 2.908,-5.877 4.206,-8.817z"/>
  <path id="svg_88" fill="#CCCCCC" d="m170.802,455.204c7.116,0 14.231,0 21.347,0c-0.646,2.936 -1.615,5.877 -2.589,8.813c-7.435,0 -14.875,0 -22.311,-0.324c0.965,-2.612 2.264,-5.553 3.553,-8.489z"/>
  <path id="svg_89" fill="#CCCCCC" d="m195.711,455.204c7.436,0 14.551,0 21.667,0c-0.645,2.936 -1.294,5.877 -2.263,8.813c-7.437,0 -14.552,0 -21.992,0c0.969,-2.936 1.614,-5.877 2.588,-8.813z"/>
  <path id="svg_90" fill="#CCCCCC" d="m220.936,455.204c7.115,0 14.231,0 21.67,0c-0.649,2.936 -0.969,5.877 -1.614,8.813c-7.44,0 -14.88,0 -22.32,0c0.974,-2.936 1.615,-5.877 2.264,-8.813z"/>
  <path id="svg_91" fill="#CCCCCC" d="m246.164,455.204c7.116,0 14.231,0 21.672,0.327c-0.325,2.937 -0.649,5.878 -0.97,8.813c-7.44,0 -14.881,0 -22.32,-0.327c0.649,-2.936 0.974,-5.877 1.618,-8.813z"/>
  <path id="svg_92" fill="#CCCCCC" d="m271.068,455.531c7.115,0 14.557,0 21.672,0c0,2.937 0,5.878 0,8.813c-7.44,0 -14.881,0 -22.316,0c0.32,-2.935 0.32,-5.876 0.644,-8.813z"/>
  <path id="svg_93" fill="#CCCCCC" d="m296.298,455.531c7.115,0 14.231,0 21.671,0c0,2.937 0.32,5.878 0.645,8.813c-7.44,0 -14.876,0 -22.315,0c-0.001,-2.935 -0.001,-5.876 -0.001,-8.813z"/>
  <path id="svg_94" fill="#CCCCCC" d="m321.202,455.531c7.44,0 14.556,0 21.672,0c0.644,2.937 0.969,5.878 1.613,9.142c-7.436,0 -14.875,-0.328 -22.315,-0.328c-0.324,-2.936 -0.645,-5.877 -0.97,-8.814z"/>
  <path id="svg_95" fill="#CCCCCC" d="m346.431,455.531c7.115,0 14.551,0 21.667,0.323c0.648,2.94 1.294,5.878 2.263,8.818c-7.435,0 -14.876,0 -22.315,0c-0.647,-2.94 -0.97,-6.204 -1.615,-9.141z"/>
  <path id="svg_96" fill="#CCCCCC" d="m371.656,455.854c7.115,0 14.23,0 21.67,0c0.97,2.94 1.943,5.878 2.913,8.818c-7.44,0 -14.88,0 -22.315,0c-0.65,-2.94 -1.619,-5.877 -2.268,-8.818z"/>
  <path id="svg_97" fill="#CCCCCC" d="m396.56,455.854c7.44,0 14.556,0 21.671,0c1.294,2.94 2.589,5.878 3.559,8.818c-7.116,0 -14.552,0 -21.992,0c-0.97,-2.94 -2.264,-5.877 -3.238,-8.818z"/>
  <path id="svg_98" fill="#CCCCCC" d="m421.789,455.854c10.027,0 20.051,0 29.756,0c1.618,2.94 3.237,5.878 4.853,8.818c-10.35,0 -20.698,0 -30.727,0c-1.295,-2.94 -2.588,-5.877 -3.882,-8.818z"/>
  <path id="svg_99" fill="#CCCCCC" d="m62.131,454.876c9.704,0 19.729,0 29.752,0c-1.939,2.94 -3.879,5.878 -5.817,8.817c-10.353,0 -20.377,0 -30.726,0c2.264,-2.939 4.528,-5.877 6.791,-8.817z"/>
  <path id="svg_100" fill="#CCCCCC" d="m69.571,443.449c7.116,0 13.906,0 21.022,0c-1.62,2.938 -3.238,5.877 -5.177,8.813c-7.439,0 -14.555,0 -21.67,0c2.263,-2.936 4.207,-5.875 5.825,-8.813z"/>
  <path id="svg_101" fill="#CCCCCC" d="m93.827,443.449c6.794,0 13.91,0 21.025,0c-1.618,2.938 -2.913,5.877 -4.851,8.813c-7.115,0 -14.231,0 -21.346,0c1.938,-2.936 3.553,-5.875 5.172,-8.813z"/>
  <path id="svg_102" fill="#CCCCCC" d="m118.081,443.449c6.795,0.323 13.911,0.323 20.706,0.323c-0.974,2.941 -2.268,5.878 -3.563,8.49c-7.439,0 -14.555,0 -21.67,0c1.619,-2.936 3.238,-5.875 4.527,-8.813z"/>
  <path id="svg_103" fill="#CCCCCC" d="m142.34,443.772c6.792,0 13.907,0 20.701,0c-0.644,2.941 -1.943,5.878 -2.908,8.817c-7.44,0 -14.556,0 -21.67,0c1.614,-2.939 2.908,-5.875 3.877,-8.817z"/>
  <path id="svg_104" fill="#CCCCCC" d="m166.599,443.772c6.792,0 13.907,0 20.698,0c-0.645,2.941 -1.29,5.878 -2.264,8.817c-7.439,0 -14.555,0 -21.67,0c1.298,-2.939 2.263,-5.875 3.236,-8.817z"/>
  <path id="svg_105" fill="#CCCCCC" d="m190.859,443.772c6.791,0 13.906,0 20.697,0c-0.325,2.941 -0.97,5.878 -1.614,8.817c-7.116,0 -14.231,0 -21.671,0c0.97,-2.939 1.939,-5.875 2.588,-8.817z"/>
  <path id="svg_106" fill="#CCCCCC" d="m215.115,443.772c6.794,0 13.91,0 20.701,0c-0.325,2.941 -0.649,5.878 -0.974,8.817c-7.115,0 -14.555,0 -21.67,0c0.973,-2.939 1.297,-5.875 1.943,-8.817z"/>
  <path id="svg_107" fill="#CCCCCC" d="m239.369,443.772c6.795,0 13.911,0 20.703,0c0,2.941 0,5.878 -0.32,9.146c-7.115,-0.329 -14.556,-0.329 -21.671,-0.329c0.644,-2.939 0.968,-5.875 1.288,-8.817z"/>
  <path id="svg_108" fill="#CCCCCC" d="m263.629,443.772c6.795,0 13.911,0.328 20.701,0.328c0,2.941 0.325,5.877 0.325,8.818c-7.44,0 -14.231,0 -21.672,0c0.326,-2.94 0.646,-6.204 0.646,-9.146z"/>
  <path id="svg_109" fill="#CCCCCC" d="m287.564,444.101c7.115,0 14.23,0 21.021,0c0.324,2.941 0.648,5.877 0.974,8.818c-7.44,0 -14.556,0 -21.672,0c0.001,-2.941 0.001,-5.877 -0.323,-8.818z"/>
  <path id="svg_110" fill="#CCCCCC" d="m312.144,444.101c6.794,0 13.586,0 20.701,0c0.65,2.941 0.969,5.877 1.619,8.818c-7.44,0 -14.556,0 -21.672,0c0,-2.941 -0.324,-5.877 -0.648,-8.818z"/>
  <path id="svg_111" fill="#CCCCCC" d="m336.078,444.101c7.116,0 13.911,0 21.026,0c0.97,2.941 1.613,5.877 2.263,8.818c-7.439,0 -14.555,0 -21.671,0c-0.323,-2.941 -0.968,-5.877 -1.618,-8.818z"/>
  <path id="svg_112" fill="#CCCCCC" d="m360.338,444.101c7.115,0 14.229,0 21.021,0c0.969,2.941 1.944,5.877 2.913,9.141c-7.115,0 -14.23,0 -21.673,-0.322c-0.642,-2.942 -1.292,-5.878 -2.261,-8.819z"/>
  <path id="svg_113" fill="#CCCCCC" d="m385.242,444.101c6.789,0 13.904,0 20.701,0c1.294,2.941 2.264,6.205 3.558,9.141c-7.115,0 -14.231,0 -21.347,0c-0.973,-2.936 -1.943,-6.2 -2.912,-9.141z"/>
  <path id="svg_114" fill="#CCCCCC" d="m410.146,444.101c11.967,0 23.609,0 35.577,0c1.618,3.265 2.914,6.205 4.528,9.141c-12.288,0 -24.257,0 -36.547,0c-1.296,-2.936 -2.265,-6.2 -3.558,-9.141z"/>
  <path id="svg_115" fill="#CCCCCC" d="m88.33,429.733c3.554,0 7.44,0 10.993,0c2.264,0 3.882,0.655 3.563,1.635l0,0c-0.65,0.979 -2.914,1.63 -4.852,1.63c-3.883,0 -7.765,0 -11.644,0c-2.268,0 -3.562,-0.651 -3.237,-1.63l0,0c0.65,-0.979 2.913,-1.635 5.177,-1.635z"/>
  <path id="svg_116" fill="#CCCCCC" d="m110.001,429.733c3.877,0 7.435,0 11.318,0c2.263,0 3.558,0.655 3.232,1.635l0,0c-0.319,0.979 -2.263,1.957 -4.527,1.957c-3.882,0 -7.761,-0.327 -11.322,-0.327c-2.264,0 -3.878,-0.651 -3.554,-1.63l0,0c0.645,-0.979 2.589,-1.635 4.853,-1.635z"/>
  <path id="svg_117" fill="#CCCCCC" d="m131.992,429.733c3.558,0 7.436,0 10.999,0c2.264,0 3.877,0.655 3.558,1.635l0,0c-0.325,0.979 -2.268,1.957 -4.532,1.957c-3.878,0 -7.761,0 -11.318,0c-2.264,0 -3.878,-0.979 -3.558,-1.957l0,0c0.324,-0.979 2.588,-1.635 4.851,-1.635z"/>
  <path id="svg_118" fill="#CCCCCC" d="m153.664,429.733c3.882,0 7.435,0 11.317,0c2.269,0 3.883,0.655 3.558,1.635l0,0c-0.325,0.979 -2.263,1.957 -4.527,1.957c-3.878,0 -7.44,0 -11.318,0c-2.264,0 -3.882,-0.979 -3.562,-1.957l0,0c0.324,-0.979 2.263,-1.635 4.532,-1.635z"/>
  <path id="svg_119" fill="#CCCCCC" d="m175.654,429.733c3.562,0 7.44,0 10.998,0c2.264,0 3.882,0.655 3.882,1.635l0,0c-0.324,0.979 -2.263,1.957 -4.527,1.957c-3.882,0 -7.439,0 -11.322,0c-2.264,0 -3.883,-0.979 -3.558,-1.957l0,0c0.325,-0.979 2.264,-1.635 4.527,-1.635z"/>
  <path id="svg_120" fill="#CCCCCC" d="m197.326,429.733c3.882,0 7.439,0 11.318,0c2.263,0 3.882,0.655 3.882,1.635l0,0c0,0.979 -2.263,1.957 -4.527,1.957c-3.558,0 -7.437,0 -11.323,0c-2.264,0 -3.878,-0.979 -3.553,-1.957l0,0c0,-0.979 1.939,-1.635 4.203,-1.635z"/>
  <path id="svg_121" fill="#CCCCCC" d="m219.321,429.733c3.553,0 7.439,0 11.317,0c1.939,0 3.883,0.655 3.883,1.635l0,0c-0.325,0.979 -1.943,1.957 -4.207,1.957c-3.878,0 -7.761,0 -11.318,0c-2.264,0 -4.203,-0.979 -3.882,-1.957l0,0c0.001,-0.979 1.944,-1.635 4.207,-1.635z"/>
  <path id="svg_122" fill="#CCCCCC" d="m240.992,429.733c3.878,0 7.436,0 11.318,0c2.264,0 3.878,0.655 4.203,1.635l0,0c0,1.307 -1.939,1.957 -4.203,1.957c-3.883,0 -7.765,0 -11.318,0c-2.268,0 -4.207,-0.979 -4.207,-1.957l0,0c0.32,-0.979 1.94,-1.635 4.207,-1.635z"/>
  <path id="svg_123" fill="#CCCCCC" d="m262.983,429.733c3.559,0 7.44,0 11.319,0c1.942,0 3.881,0.979 3.881,1.957l0,0c0.325,0.984 -1.618,1.635 -3.881,1.635c-3.879,0 -7.437,0 -11.319,0c-2.263,0 -4.206,-0.65 -4.206,-1.635l0,0c0,-1.301 1.944,-1.957 4.206,-1.957z"/>
  <path id="svg_124" fill="#CCCCCC" d="m284.655,429.733c3.878,0 7.435,0 11.317,0c2.264,0 4.208,0.979 4.208,1.957l0,0c0.32,0.984 -1.619,1.635 -3.883,1.635c-3.558,0 -7.44,0 -11.323,0c-2.263,0 -3.877,-0.65 -4.202,-1.635l0,0c0,-0.978 1.615,-1.957 3.883,-1.957z"/>
  <path id="svg_125" fill="#CCCCCC" d="m306.646,429.733c3.558,0 7.44,0 11.322,0c1.939,0 3.879,0.979 4.203,1.957l0,0c0.324,0.984 -1.295,1.635 -3.883,1.635c-3.558,0 -7.437,0 -11.318,0c-1.943,0 -3.883,-0.65 -4.206,-1.635l0,0c-0.32,-0.978 1.619,-1.957 3.882,-1.957z"/>
  <path id="svg_126" fill="#CCCCCC" d="m328.317,429.733c3.882,0 7.44,0 11.317,0c2.264,0 4.208,0.979 4.532,1.957l0,0c0.32,0.984 -1.293,1.635 -3.557,1.635c-3.883,0 -7.766,0 -11.323,0c-2.264,0 -4.203,-0.65 -4.527,-1.635l0,0c-0.324,-0.978 1.294,-1.957 3.558,-1.957z"/>
  <path id="svg_127" fill="#CCCCCC" d="m350.31,429.733c3.557,0 7.439,0 11.321,0c1.939,0 4.203,0.979 4.528,1.957l0,0c0.323,0.984 -1.295,1.635 -3.56,1.635c-3.882,0 -7.439,0 -11.317,0c-2.268,0 -4.206,-0.65 -4.531,-1.635l0,0c-0.32,-0.978 1.294,-1.957 3.559,-1.957z"/>
  <path id="svg_128" fill="#CCCCCC" d="m371.98,429.733c3.882,0 7.44,0 11.323,0c2.262,0 4.525,0.979 4.851,1.957l0,0c0.32,0.984 -1.294,1.963 -3.558,1.963c-3.883,0 -7.439,-0.328 -11.322,-0.328c-2.264,0 -4.202,-0.65 -4.528,-1.635l0,0c-0.324,-0.978 1.296,-1.957 3.234,-1.957z"/>
  <path id="svg_129" fill="#CCCCCC" d="m393.976,429.733c3.559,0 7.436,0 11.317,0c1.944,0 4.208,0.979 4.853,1.957l0,0c0.324,0.984 -1.294,1.963 -3.558,1.963c-3.559,0 -7.441,0 -11.318,0c-2.267,0 -4.207,-0.979 -4.531,-1.963l0,0c-0.646,-0.978 0.973,-1.957 3.237,-1.957z"/>
  <path id="svg_130" fill="#CCCCCC" d="m415.968,430.061c3.557,0 7.439,0 10.998,0c2.263,0 4.526,0.651 5.175,1.63l0,0c0.32,0.984 -0.973,1.963 -3.236,1.963c-3.879,0 -7.761,0 -11.318,0c-2.264,0 -4.527,-0.979 -5.178,-1.963l0,0c-0.324,-0.979 1.295,-1.63 3.559,-1.63z"/>
  <path id="svg_131" fill="#CCCCCC" d="m95.77,417.979c3.877,0 7.116,0.979 7.116,1.958c0,1.306 -3.239,1.961 -7.116,1.961c-3.887,0 -7.115,-0.655 -7.115,-1.961c0,-0.979 3.228,-1.958 7.115,-1.958z"/>
  <path id="svg_132" fill="#CCCCCC" d="m113.234,418.631c2.583,0 4.527,0.655 4.527,1.307c0,0.979 -1.943,1.306 -4.527,1.306c-2.914,0 -4.852,-0.327 -4.852,-1.306c0,-0.652 1.938,-1.307 4.852,-1.307z"/>
  <path id="svg_133" fill="#B8B8B8" d="m246.484,478.061c1.943,0 4.207,0 6.471,0c-0.32,2.937 -0.645,5.878 -0.645,8.813c-2.264,0 -4.527,0 -6.47,0c0,-2.936 0.324,-5.877 0.644,-8.813z"/>
  <path id="svg_134" fill="#B8B8B8" d="m256.514,478.061c7.765,0 15.524,0 23.29,0.328c0,2.936 0,5.877 0,8.813c-7.766,0 -15.851,-0.328 -23.615,-0.328c-0.001,-2.936 0.325,-5.877 0.325,-8.813z"/>
  <path id="svg_135" fill="#B8B8B8" d="m283.682,478.389c7.765,0 15.524,0 23.289,0c0,2.936 0.325,5.877 0.646,8.813c-8.086,0 -15.846,0 -23.935,0c0,-2.936 0,-5.878 0,-8.813z"/>
  <path id="svg_136" fill="#B8B8B8" d="m310.529,478.389c7.76,0 15.523,0 23.284,0c0.325,2.936 0.97,6.2 1.62,9.141c-8.085,0 -16.171,-0.327 -23.936,-0.327c-0.324,-2.937 -0.644,-5.879 -0.968,-8.814z"/>
  <path id="svg_137" fill="#B8B8B8" d="m337.696,478.389c7.761,0.323 15.525,0.323 23.285,0.323c0.649,2.941 1.295,5.877 1.944,8.817c-8.085,0 -15.85,0 -23.935,0c-0.324,-2.94 -0.969,-5.876 -1.294,-9.14z"/>
  <path id="svg_138" fill="#B8B8B8" d="m364.54,478.712c7.765,0 15.524,0 23.289,0c0.97,2.941 1.939,5.877 2.909,9.146c-8.085,-0.329 -15.846,-0.329 -23.931,-0.329c-0.648,-2.94 -1.618,-5.876 -2.267,-8.817z"/>
  <path id="svg_139" fill="#B8B8B8" d="m391.388,478.712c24.255,0 48.188,0 72.125,0.328c1.618,2.94 3.232,5.877 4.851,8.818c-24.579,0 -49.163,0 -73.742,0c-1.296,-3.269 -2.265,-6.205 -3.234,-9.146z"/>
  <path id="svg_140" fill="#B8B8B8" d="m247.784,466.63c6.141,0 12.612,0 18.758,0c0,3.269 -0.324,6.205 -0.649,9.146c-6.467,-0.327 -12.937,-0.327 -19.408,-0.327c0.648,-2.942 0.973,-5.878 1.299,-8.819z"/>
  <path id="svg_141" fill="#B8B8B8" d="m270.424,466.63c7.436,0.327 14.876,0.327 22.316,0.327c0,2.941 0,5.878 0,8.818c-7.766,0 -15.525,0 -22.966,0c0,-2.94 0.326,-5.877 0.65,-9.145z"/>
  <path id="svg_142" fill="#B8B8B8" d="m296.298,466.957c7.439,0 14.875,0 22.64,0c0,2.941 0.325,5.878 0.646,8.818c-7.761,0 -15.524,0 -23.285,0c-0.001,-2.94 -0.001,-5.877 -0.001,-8.818z"/>
  <path id="svg_143" fill="#B8B8B8" d="m322.496,466.957c7.436,0 14.877,0 22.316,0c0.324,3.265 0.969,6.205 1.294,9.143c-7.765,0 -15.201,0 -22.965,-0.324c-0.325,-2.941 -0.645,-5.878 -0.645,-8.819z"/>
  <path id="svg_144" fill="#B8B8B8" d="m348.369,466.957c7.441,0.329 15.201,0.329 22.316,0.329c0.971,2.936 1.619,5.876 2.264,8.813c-7.76,0 -15.2,0 -22.96,0c-0.65,-2.937 -0.974,-5.877 -1.62,-9.142z"/>
  <path id="svg_145" fill="#B8B8B8" d="m374.567,467.286c7.44,0 14.876,0 22.317,0c0.969,2.936 1.943,5.876 2.912,8.813c-7.766,0 -15.2,0 -22.966,0c-0.968,-2.937 -1.617,-5.877 -2.263,-8.813z"/>
  <path id="svg_146" fill="#B8B8B8" d="m400.442,467.286c19.082,0 38.165,0 57.248,0c1.294,2.936 2.912,6.204 4.526,9.141c-19.727,0 -39.134,0 -58.542,-0.327c-1.288,-2.938 -2.263,-5.878 -3.232,-8.814z"/>
  <path id="svg_147" fill="#B8B8B8" d="m249.073,455.204c6.15,0 12.292,0 18.763,0.327c-0.325,2.937 -0.649,5.878 -0.97,8.813c-6.146,0 -12.617,0 -18.759,-0.327c0.321,-2.936 0.646,-5.877 0.966,-8.813z"/>
  <path id="svg_148" fill="#B8B8B8" d="m271.068,455.531c7.115,0 14.557,0 21.672,0c0,2.937 0,5.878 0,8.813c-7.44,0 -14.881,0 -22.316,0c0.32,-2.935 0.32,-5.876 0.644,-8.813z"/>
  <path id="svg_149" fill="#B8B8B8" d="m296.298,455.531c7.115,0 14.231,0 21.671,0c0,2.937 0.32,5.878 0.645,8.813c-7.44,0 -14.876,0 -22.315,0c-0.001,-2.935 -0.001,-5.876 -0.001,-8.813z"/>
  <path id="svg_150" fill="#B8B8B8" d="m321.202,455.531c7.44,0 14.556,0 21.672,0c0.644,2.937 0.969,5.878 1.613,9.142c-7.436,0 -14.875,-0.328 -22.315,-0.328c-0.324,-2.936 -0.645,-5.877 -0.97,-8.814z"/>
  <path id="svg_151" fill="#B8B8B8" d="m346.431,455.531c7.115,0 14.551,0 21.667,0.323c0.648,2.94 1.294,5.878 2.263,8.818c-7.435,0 -14.876,0 -22.315,0c-0.647,-2.94 -0.97,-6.204 -1.615,-9.141z"/>
  <path id="svg_152" fill="#B8B8B8" d="m371.656,455.854c7.115,0 14.23,0 21.67,0c0.97,2.94 1.943,5.878 2.913,8.818c-7.44,0 -14.88,0 -22.315,0c-0.65,-2.94 -1.619,-5.877 -2.268,-8.818z"/>
  <path id="svg_153" fill="#B8B8B8" d="m396.56,455.854c7.44,0 14.556,0 21.671,0c1.294,2.94 2.589,5.878 3.559,8.818c-7.116,0 -14.552,0 -21.992,0c-0.97,-2.94 -2.264,-5.877 -3.238,-8.818z"/>
  <path id="svg_154" fill="#B8B8B8" d="m421.789,455.854c10.027,0 20.051,0 29.756,0c1.618,2.94 3.237,5.878 4.853,8.818c-10.35,0 -20.698,0 -30.727,0c-1.295,-2.94 -2.588,-5.877 -3.882,-8.818z"/>
  <path id="svg_155" fill="#B8B8B8" d="m250.047,443.772c3.553,0 6.791,0 10.024,0c0,2.941 0,5.878 -0.32,9.146c-3.563,-0.329 -6.795,-0.329 -10.353,-0.329c0.324,-2.939 0.649,-5.875 0.649,-8.817z"/>
  <path id="svg_156" fill="#B8B8B8" d="m263.629,443.772c6.795,0 13.911,0.328 20.701,0.328c0,2.941 0.325,5.877 0.325,8.818c-7.44,0 -14.231,0 -21.672,0c0.326,-2.94 0.646,-6.204 0.646,-9.146z"/>
  <path id="svg_157" fill="#B8B8B8" d="m287.564,444.101c7.115,0 14.23,0 21.021,0c0.324,2.941 0.648,5.877 0.974,8.818c-7.44,0 -14.556,0 -21.672,0c0.001,-2.941 0.001,-5.877 -0.323,-8.818z"/>
  <path id="svg_158" fill="#B8B8B8" d="m312.144,444.101c6.794,0 13.586,0 20.701,0c0.65,2.941 0.969,5.877 1.619,8.818c-7.44,0 -14.556,0 -21.672,0c0,-2.941 -0.324,-5.877 -0.648,-8.818z"/>
  <path id="svg_159" fill="#B8B8B8" d="m336.078,444.101c7.116,0 13.911,0 21.026,0c0.97,2.941 1.613,5.877 2.263,8.818c-7.439,0 -14.555,0 -21.671,0c-0.323,-2.941 -0.968,-5.877 -1.618,-8.818z"/>
  <path id="svg_160" fill="#B8B8B8" d="m360.338,444.101c7.115,0 14.229,0 21.021,0c0.969,2.941 1.944,5.877 2.913,9.141c-7.115,0 -14.23,0 -21.673,-0.322c-0.642,-2.942 -1.292,-5.878 -2.261,-8.819z"/>
  <path id="svg_161" fill="#B8B8B8" d="m385.242,444.101c6.789,0 13.904,0 20.701,0c1.294,2.941 2.264,6.205 3.558,9.141c-7.115,0 -14.231,0 -21.347,0c-0.973,-2.936 -1.943,-6.2 -2.912,-9.141z"/>
  <path id="svg_162" fill="#B8B8B8" d="m410.146,444.101c11.967,0 23.609,0 35.577,0c1.618,3.265 2.914,6.205 4.528,9.141c-12.288,0 -24.257,0 -36.547,0c-1.296,-2.936 -2.265,-6.2 -3.558,-9.141z"/>
  <path id="svg_163" fill="#B8B8B8" d="m250.047,429.733c0.645,0 1.615,0 2.264,0c2.264,0 3.878,0.655 4.203,1.635l0,0c0,1.307 -1.939,1.957 -4.203,1.957c-0.649,0 -1.619,0 -2.264,0c0,-1.305 0,-2.285 0,-3.592z"/>
  <path id="svg_164" fill="#B8B8B8" d="m262.983,429.733c3.559,0 7.44,0 11.319,0c1.942,0 3.881,0.979 3.881,1.957l0,0c0.325,0.984 -1.618,1.635 -3.881,1.635c-3.879,0 -7.437,0 -11.319,0c-2.263,0 -4.206,-0.65 -4.206,-1.635l0,0c0,-1.301 1.944,-1.957 4.206,-1.957z"/>
  <path id="svg_165" fill="#B8B8B8" d="m284.655,429.733c3.878,0 7.435,0 11.317,0c2.264,0 4.208,0.979 4.208,1.957l0,0c0.32,0.984 -1.619,1.635 -3.883,1.635c-3.558,0 -7.44,0 -11.323,0c-2.263,0 -3.877,-0.65 -4.202,-1.635l0,0c0,-0.978 1.615,-1.957 3.883,-1.957z"/>
  <path id="svg_166" fill="#B8B8B8" d="m306.646,429.733c3.558,0 7.44,0 11.322,0c1.939,0 3.879,0.979 4.203,1.957l0,0c0.324,0.984 -1.295,1.635 -3.883,1.635c-3.558,0 -7.437,0 -11.318,0c-1.943,0 -3.883,-0.65 -4.206,-1.635l0,0c-0.32,-0.978 1.619,-1.957 3.882,-1.957z"/>
  <path id="svg_167" fill="#B8B8B8" d="m328.317,429.733c3.882,0 7.44,0 11.317,0c2.264,0 4.208,0.979 4.532,1.957l0,0c0.32,0.984 -1.293,1.635 -3.557,1.635c-3.883,0 -7.766,0 -11.323,0c-2.264,0 -4.203,-0.65 -4.527,-1.635l0,0c-0.324,-0.978 1.294,-1.957 3.558,-1.957z"/>
  <path id="svg_168" fill="#B8B8B8" d="m350.31,429.733c3.557,0 7.439,0 11.321,0c1.939,0 4.203,0.979 4.528,1.957l0,0c0.323,0.984 -1.295,1.635 -3.56,1.635c-3.882,0 -7.439,0 -11.317,0c-2.268,0 -4.206,-0.65 -4.531,-1.635l0,0c-0.32,-0.978 1.294,-1.957 3.559,-1.957z"/>
  <path id="svg_169" fill="#B8B8B8" d="m371.98,429.733c3.882,0 7.44,0 11.323,0c2.262,0 4.525,0.979 4.851,1.957l0,0c0.32,0.984 -1.294,1.963 -3.558,1.963c-3.883,0 -7.439,-0.328 -11.322,-0.328c-2.264,0 -4.202,-0.65 -4.528,-1.635l0,0c-0.324,-0.978 1.296,-1.957 3.234,-1.957z"/>
  <path id="svg_170" fill="#B8B8B8" d="m393.976,429.733c3.559,0 7.436,0 11.317,0c1.944,0 4.208,0.979 4.853,1.957l0,0c0.324,0.984 -1.294,1.963 -3.558,1.963c-3.559,0 -7.441,0 -11.318,0c-2.267,0 -4.207,-0.979 -4.531,-1.963l0,0c-0.646,-0.978 0.973,-1.957 3.237,-1.957z"/>
  <path id="svg_171" fill="#B8B8B8" d="m415.968,430.061c3.557,0 7.439,0 10.998,0c2.263,0 4.526,0.651 5.175,1.63l0,0c0.32,0.984 -0.973,1.963 -3.236,1.963c-3.879,0 -7.761,0 -11.318,0c-2.264,0 -4.527,-0.979 -5.178,-1.963l0,0c-0.324,-0.979 1.295,-1.63 3.559,-1.63z"/>
  <path id="svg_172" fill="#B8B8B8" d="m250.371,497.978l254.864,0c1.618,0 2.589,2.285 2.589,4.897l0,0c0,2.614 -0.971,4.898 -2.589,4.898l-254.864,0l0,-9.795z"/>
  <path id="svg_173" fill="#A1A1A1" d="m250.371,507.123l254.864,0c1.618,0 2.264,-3.27 2.264,-4.248s-0.646,-4.242 -2.264,-4.242l-254.864,0l0,8.49z"/>
  <path id="svg_174" fill="#4E5A62" d="m511.381,496.348c0,-0.327 -0.324,-0.656 -0.649,-0.983c-4.847,-6.856 -10.023,-13.711 -15.2,-20.572c-5.171,-6.854 -10.348,-14.038 -15.525,-21.222c-5.172,-6.856 -10.348,-14.04 -15.524,-21.224c-5.173,-6.855 -10.349,-14.039 -15.526,-21.223c-0.969,-1.307 -2.583,-1.963 -4.201,-1.963l-374.219,0c-1.615,0 -3.229,0.656 -4.203,1.963c-5.177,7.184 -10.673,14.039 -15.846,21.223c-5.177,7.184 -10.678,14.367 -15.85,21.224c-5.176,7.184 -10.672,14.038 -15.85,21.222c-5.176,6.861 -10.348,13.716 -15.525,20.572c0,0.327 -0.32,0.656 -0.645,0.983c-1.293,1.958 -1.618,4.242 -1.618,6.527c0,4.571 2.264,10.125 7.761,10.125l496.475,0c5.496,0 7.765,-5.554 7.765,-10.125c-0.001,-2.285 -0.325,-4.569 -1.62,-6.527zm-6.146,11.425l-254.864,0l-241.61,0c-1.614,0 -2.583,-2.284 -2.583,-4.898c0,-1.306 0.32,-2.936 0.969,-3.591c0,-0.328 0,-0.651 0.324,-0.651c5.177,-6.86 10.349,-13.716 15.521,-20.572c5.176,-7.184 10.353,-14.367 15.854,-21.227c5.172,-7.184 10.668,-14.367 15.846,-21.224c5.176,-7.184 10.673,-14.039 15.846,-21.223l93.475,0l86.359,0l7.112,0l93.799,0l93.472,0c5.177,7.184 10.348,14.039 15.525,21.223c5.497,7.184 10.349,14.04 15.523,21.224c5.178,6.859 10.675,14.043 15.847,21.227c4.852,6.856 10.028,13.712 14.88,20.572c0.324,0 0.324,0.323 0.646,0.651c0.324,0.655 0.649,2.285 0.649,3.591c-0.001,2.614 -0.971,4.898 -2.59,4.898z"/>
  <path id="svg_175" fill="#9badff" d="m366.159,240.676c9.054,0 16.169,7.184 16.169,15.997c0,4.569 -1.938,8.817 -5.171,11.431l-4.853,8.49l-6.146,11.098l-6.146,-11.098l-4.853,-8.49c-2.908,-2.941 -4.851,-7.184 -4.851,-11.431c0.002,-8.814 7.117,-15.997 15.851,-15.997zm0,8.813c4.526,0 8.084,3.591 8.084,7.839c0,4.57 -3.558,8.162 -8.084,8.162c-4.202,0 -7.761,-3.592 -7.761,-8.162c0,-4.248 3.559,-7.839 7.761,-7.839z"/>
 </g>
</svg>